<svg width="815" height="1080" viewBox="0 0 815 1080" fill="none" xmlns="http://www.w3.org/2000/svg">
<mask id="path-1-outside-1" maskUnits="userSpaceOnUse" x="-14" y="-60" width="829" height="1182" fill="black">
<rect fill="white" x="-14" y="-60" width="829" height="1182"/>
<path d="M752.435 1001.77C745.438 1001.77 738.735 1003.02 732.531 1005.31C742.689 994.917 748.959 980.704 748.959 965.018C748.959 933.197 723.186 907.401 691.393 907.401C686.687 907.401 682.118 907.98 677.739 909.045C684.518 899.594 688.522 888.014 688.522 875.491C688.522 853.566 676.285 834.504 658.276 824.766C665.503 815.137 669.785 803.169 669.785 790.2C669.785 758.379 644.012 732.583 612.22 732.583C605.265 732.583 598.598 733.817 592.426 736.08V388.481C599.262 391.344 606.762 392.93 614.637 392.93C646.429 392.93 672.202 367.134 672.202 335.313C672.202 315.852 662.553 298.658 647.792 288.227C664.248 278.087 675.224 259.896 675.224 239.134C675.224 218.246 664.119 199.954 647.495 189.85C654.289 180.392 658.303 168.799 658.303 156.261C658.303 151.935 657.812 147.727 656.909 143.675C657.373 143.685 657.835 143.709 658.303 143.709C687.733 143.709 711.988 121.599 715.433 93.0713C717.707 93.3453 720.018 93.5014 722.365 93.5014C754.157 93.5014 779.93 67.7053 779.93 35.8843C779.93 10.4221 763.422 -11.1675 740.537 -18.7856L773.738 -55H-9V1095.53H707.617C718.169 1108.62 734.32 1117 752.435 1117C784.227 1117 810 1091.2 810 1059.38C810 1027.56 784.227 1001.77 752.435 1001.77Z"/>
</mask>
<path d="M752.435 1001.77C745.438 1001.77 738.735 1003.02 732.531 1005.31C742.689 994.917 748.959 980.704 748.959 965.018C748.959 933.197 723.186 907.401 691.393 907.401C686.687 907.401 682.118 907.98 677.739 909.045C684.518 899.594 688.522 888.014 688.522 875.491C688.522 853.566 676.285 834.504 658.276 824.766C665.503 815.137 669.785 803.169 669.785 790.2C669.785 758.379 644.012 732.583 612.22 732.583C605.265 732.583 598.598 733.817 592.426 736.08V388.481C599.262 391.344 606.762 392.93 614.637 392.93C646.429 392.93 672.202 367.134 672.202 335.313C672.202 315.852 662.553 298.658 647.792 288.227C664.248 278.087 675.224 259.896 675.224 239.134C675.224 218.246 664.119 199.954 647.495 189.85C654.289 180.392 658.303 168.799 658.303 156.261C658.303 151.935 657.812 147.727 656.909 143.675C657.373 143.685 657.835 143.709 658.303 143.709C687.733 143.709 711.988 121.599 715.433 93.0713C717.707 93.3453 720.018 93.5014 722.365 93.5014C754.157 93.5014 779.93 67.7053 779.93 35.8843C779.93 10.4221 763.422 -11.1675 740.537 -18.7856L773.738 -55H-9V1095.53H707.617C718.169 1108.62 734.32 1117 752.435 1117C784.227 1117 810 1091.2 810 1059.38C810 1027.56 784.227 1001.77 752.435 1001.77Z" fill="#9999FF"/>
<path d="M732.531 1005.31L728.956 1001.81C727.321 1003.48 727.063 1006.06 728.335 1008.03C729.606 1009.99 732.067 1010.81 734.261 1010L732.531 1005.31ZM677.739 909.045L673.676 906.131C672.457 907.83 672.425 910.108 673.594 911.842C674.764 913.575 676.889 914.398 678.921 913.903L677.739 909.045ZM658.276 824.766L654.277 821.765C653.403 822.928 653.08 824.415 653.391 825.836C653.703 827.257 654.618 828.472 655.898 829.164L658.276 824.766ZM592.426 736.08H587.426C587.426 737.713 588.224 739.243 589.563 740.179C590.902 741.114 592.614 741.336 594.148 740.774L592.426 736.08ZM592.426 388.481L594.358 383.869C592.815 383.223 591.05 383.391 589.657 384.318C588.263 385.245 587.426 386.807 587.426 388.481H592.426ZM647.792 288.227L645.169 283.97C643.74 284.851 642.848 286.391 642.795 288.07C642.742 289.748 643.535 291.341 644.907 292.31L647.792 288.227ZM647.495 189.85L643.434 186.933C642.622 188.064 642.318 189.483 642.596 190.848C642.874 192.212 643.708 193.399 644.898 194.123L647.495 189.85ZM656.909 143.675L657.026 138.676C655.489 138.64 654.02 139.313 653.044 140.501C652.069 141.69 651.694 143.261 652.028 144.762L656.909 143.675ZM715.433 93.0713L716.031 88.1072C713.29 87.7769 710.8 89.7308 710.469 92.4719L715.433 93.0713ZM740.537 -18.7856L736.852 -22.1645C735.706 -20.9153 735.272 -19.1711 735.697 -17.5306C736.123 -15.8902 737.35 -14.5769 738.958 -14.0416L740.537 -18.7856ZM773.738 -55L777.424 -51.6211C778.764 -53.0827 779.114 -55.1981 778.315 -57.0132C777.517 -58.8282 775.721 -60 773.738 -60V-55ZM-9 -55V-60C-11.7614 -60 -14 -57.7614 -14 -55H-9ZM-9 1095.53H-14C-14 1098.29 -11.7614 1100.53 -9 1100.53L-9 1095.53ZM707.617 1095.53L711.51 1092.39C710.561 1091.21 709.129 1090.53 707.617 1090.53V1095.53ZM752.435 996.766C744.837 996.766 737.549 998.126 730.8 1000.62L734.261 1010C739.921 1007.91 746.039 1006.77 752.435 1006.77V996.766ZM736.106 1008.8C747.14 997.518 753.959 982.065 753.959 965.018H743.959C743.959 979.344 738.239 992.317 728.956 1001.81L736.106 1008.8ZM753.959 965.018C753.959 930.44 725.952 902.401 691.393 902.401V912.401C720.42 912.401 743.959 935.954 743.959 965.018H753.959ZM691.393 902.401C686.275 902.401 681.309 903.031 676.557 904.187L678.921 913.903C682.926 912.929 687.099 912.401 691.393 912.401V902.401ZM681.802 911.959C689.168 901.69 693.522 889.098 693.522 875.491H683.522C683.522 886.931 679.868 897.498 673.676 906.131L681.802 911.959ZM693.522 875.491C693.522 851.658 680.215 830.945 660.654 820.368L655.898 829.164C672.355 838.063 683.522 855.473 683.522 875.491H693.522ZM662.275 827.768C670.129 817.303 674.785 804.288 674.785 790.2H664.785C664.785 802.05 660.876 812.972 654.277 821.765L662.275 827.768ZM674.785 790.2C674.785 755.622 646.778 727.583 612.22 727.583V737.583C641.247 737.583 664.785 761.136 664.785 790.2H674.785ZM612.22 727.583C604.669 727.583 597.42 728.923 590.705 731.385L594.148 740.774C599.776 738.71 605.86 737.583 612.22 737.583V727.583ZM597.426 736.08V388.481H587.426V736.08H597.426ZM590.494 393.092C597.928 396.207 606.085 397.93 614.637 397.93V387.93C607.44 387.93 600.595 386.482 594.358 383.869L590.494 393.092ZM614.637 397.93C649.195 397.93 677.202 369.892 677.202 335.313H667.202C667.202 364.377 643.663 387.93 614.637 387.93V397.93ZM677.202 335.313C677.202 314.159 666.706 295.471 650.678 284.144L644.907 292.31C658.4 301.846 667.202 317.546 667.202 335.313H677.202ZM650.416 292.484C668.286 281.471 680.224 261.703 680.224 239.134H670.224C670.224 258.089 660.21 274.702 645.169 283.97L650.416 292.484ZM680.224 239.134C680.224 216.43 668.147 196.551 650.092 185.577L644.898 194.123C660.091 203.357 670.224 220.063 670.224 239.134H680.224ZM651.556 192.767C658.937 182.49 663.303 169.884 663.303 156.261H653.303C653.303 167.714 649.64 178.293 643.434 186.933L651.556 192.767ZM663.303 156.261C663.303 151.555 662.768 146.982 661.789 142.587L652.028 144.762C652.855 148.472 653.303 152.315 653.303 156.261H663.303ZM656.791 148.673C657.056 148.679 657.774 148.709 658.303 148.709V138.709C657.896 138.709 657.69 138.691 657.026 138.676L656.791 148.673ZM658.303 148.709C690.299 148.709 716.653 124.673 720.397 93.6707L710.469 92.4719C707.323 118.524 685.167 138.709 658.303 138.709V148.709ZM714.835 98.0354C717.284 98.3306 719.797 98.5014 722.365 98.5014V88.5014C720.24 88.5014 718.129 88.3601 716.031 88.1072L714.835 98.0354ZM722.365 98.5014C756.923 98.5014 784.93 70.4625 784.93 35.8843H774.93C774.93 64.9481 751.391 88.5014 722.365 88.5014V98.5014ZM784.93 35.8843C784.93 8.20522 766.982 -15.252 742.116 -23.5297L738.958 -14.0416C759.861 -7.08298 774.93 12.6391 774.93 35.8843H784.93ZM744.223 -15.4068L777.424 -51.6211L770.053 -58.3789L736.852 -22.1645L744.223 -15.4068ZM773.738 -60H-9V-50H773.738V-60ZM-14 -55V1095.53H-4V-55H-14ZM-9 1100.53H707.617V1090.53H-9V1100.53ZM703.724 1098.66C715.182 1112.88 732.74 1122 752.435 1122V1112C735.9 1112 721.156 1104.36 711.51 1092.39L703.724 1098.66ZM752.435 1122C786.993 1122 815 1093.96 815 1059.38H805C805 1088.45 781.461 1112 752.435 1112V1122ZM815 1059.38C815 1024.8 786.993 996.766 752.435 996.766V1006.77C781.461 1006.77 805 1030.32 805 1059.38H815Z" fill="white" mask="url(#path-1-outside-1)"/>
</svg>
