<svg width="1433" height="983" viewBox="0 0 1433 983" fill="none" xmlns="http://www.w3.org/2000/svg">
<path d="M53.6426 4.04097C52.7665 3.03486 51.2547 2.89395 50.2078 3.72082C49.1608 4.54768 48.9476 6.05094 49.7233 7.13635C53.4901 12.4071 58.6947 19.1083 64.9657 27.1826C114.423 90.8626 230.214 239.951 230.214 446.324C230.214 724.421 62.2112 890.43 10.5475 941.48C8.18974 943.81 6.07426 945.9 4.22812 947.751C3.26517 948.716 3.2533 950.275 4.20144 951.255C5.14958 952.235 6.708 952.274 7.70447 951.344C49.7346 912.089 138.829 856.389 217.276 834.169C256.554 823.043 292.629 820.467 318.74 831.972C331.72 837.692 342.293 846.912 349.653 860.442C357.033 874.011 361.252 892.046 361.252 915.461C361.252 916.587 362.005 917.574 363.09 917.872C364.176 918.169 365.327 917.705 365.902 916.736C377.467 897.242 391.909 875.822 407.047 857.595C422.243 839.298 437.921 824.489 451.917 817.882C458.882 814.595 465.194 813.451 470.727 814.668C476.194 815.87 481.307 819.466 485.754 826.501C494.776 840.774 500.609 868.514 500.609 915.461C500.609 916.639 501.432 917.657 502.584 917.905C503.735 918.153 504.904 917.562 505.388 916.489C515.178 894.784 527.402 870.938 540.214 850.647C553.095 830.248 566.344 813.815 578.093 806.521C583.928 802.899 589.007 801.767 593.346 803.021C597.681 804.275 601.996 808.12 605.829 816.096C613.54 832.141 618.474 863.202 618.474 915.461C618.474 916.603 619.249 917.601 620.356 917.883C621.463 918.166 622.621 917.661 623.169 916.658C633.239 898.199 645.815 877.752 658.998 860.081C672.232 842.342 685.89 827.66 698.079 820.449C704.16 816.851 709.601 815.278 714.291 815.823C718.859 816.353 723.158 818.945 726.951 824.669C730.79 830.463 734.026 839.365 736.289 852.167C738.546 864.937 739.805 881.423 739.805 902.255C739.805 903.521 740.752 904.588 742.009 904.738C743.266 904.888 744.437 904.074 744.735 902.844C749.103 884.81 755.226 865.017 762.604 848.194C770.043 831.231 778.547 817.793 787.438 811.883C791.774 809 796.032 808.017 800.308 809.082C804.669 810.169 809.487 813.496 814.633 820.165C824.96 833.55 835.847 859.399 846.65 902.859C846.927 903.972 847.926 904.754 849.074 904.755C850.221 904.757 851.222 903.977 851.501 902.864C855.569 886.667 861.699 869.075 869.621 854.41C877.596 839.648 887.149 828.299 897.847 823.912C903.119 821.75 908.716 821.255 914.699 822.918C920.723 824.593 927.286 828.501 934.344 835.393C948.499 849.219 964.251 874.665 981.266 916.404C981.729 917.541 982.949 918.173 984.145 917.896C985.341 917.619 986.159 916.515 986.075 915.29C984.888 897.899 988.072 877.733 994.892 860.167C1001.74 842.54 1012.07 827.942 1024.88 821.148C1031.23 817.778 1038.22 816.307 1045.82 817.33C1053.43 818.357 1061.82 821.918 1070.88 828.863C1089.06 842.794 1109.65 870.102 1131.77 916.536C1132.23 917.483 1133.22 918.047 1134.26 917.95C1135.31 917.852 1136.18 917.113 1136.45 916.099C1144.9 884.096 1155.89 859.164 1170.27 842.904C1184.54 826.778 1202.17 819.133 1224.42 821.633C1246.87 824.156 1274.24 837.041 1307.64 862.653C1340.99 888.235 1380.14 926.344 1426.12 978.962C1426.96 979.925 1428.39 980.098 1429.44 979.364C1430.48 978.629 1430.81 977.224 1430.19 976.106C1425.1 966.914 1416.57 955.256 1406.06 940.898C1401.36 934.465 1396.25 927.489 1390.89 919.951C1373.44 895.452 1352.93 864.67 1333.33 826.317C1294.15 749.634 1258.56 642.583 1258.56 494.975C1258.56 347.437 1301.39 233.347 1344.21 156.15C1365.63 117.55 1387.03 88.1763 1403.07 68.4657C1411.09 58.6108 1417.77 51.173 1422.43 46.2066C1424.77 43.7234 1426.59 41.8583 1427.84 40.6179C1428.46 39.9978 1428.93 39.5338 1429.25 39.227C1429.41 39.0735 1429.52 38.9594 1429.6 38.8846L1429.68 38.8094L1429.69 38.8019L1429.71 38.7828L1429.71 38.7788C1429.71 38.7786 1429.71 38.7785 1429.62 38.6814L1429.71 38.7785C1430.71 37.8379 1430.77 36.2684 1429.84 35.2612C1428.9 34.254 1427.33 34.1855 1426.32 35.1076C1398.2 60.6354 1363.2 88.7192 1327.71 112.645C1292.19 136.597 1256.34 156.269 1226.5 165.121C1211.58 169.548 1198.36 171.206 1187.53 169.488C1176.8 167.786 1168.41 162.782 1162.84 153.728C1157.21 144.567 1154.29 130.981 1155.23 111.84C1156.17 92.7253 1160.93 68.3053 1170.39 37.697C1170.76 36.4935 1170.18 35.201 1169.04 34.6812C1167.89 34.1615 1166.53 34.5768 1165.87 35.6503C1151.73 58.681 1135.5 83.9638 1119.5 105.486C1103.43 127.104 1087.83 144.595 1074.97 152.382C1068.53 156.28 1063.3 157.43 1059.22 156.136C1055.21 154.865 1051.43 150.94 1048.57 142.483C1045.72 134.055 1043.98 121.604 1043.73 104.24C1043.48 86.9098 1044.73 64.8331 1047.77 37.2326C1047.91 36.0174 1047.14 34.8836 1045.96 34.5522C1044.79 34.2207 1043.54 34.7889 1043.02 35.8953C1032.74 57.7857 1019.04 81.8661 1004.54 102.367C989.982 122.956 974.832 139.614 961.708 147.027C955.166 150.722 949.503 151.909 944.804 150.611C940.175 149.333 935.806 145.452 932.242 137.457C925.042 121.302 921.873 89.9603 925.755 37.1418C925.846 35.9038 925.015 34.7865 923.803 34.5178C922.591 34.2491 921.366 34.9103 920.925 36.0707C912.44 58.4058 902.536 82.9013 892.054 103.743C886.814 114.163 881.451 123.626 876.074 131.428C870.678 139.258 865.362 145.277 860.254 148.946C855.169 152.598 850.59 153.727 846.384 152.46C842.069 151.16 837.442 147.139 832.8 138.855C823.51 122.277 815.088 90.2993 808.572 36.6571C808.425 35.4429 807.421 34.5137 806.199 34.4609C804.977 34.408 803.896 35.2471 803.644 36.4441C798.923 58.8978 792.406 83.5563 784.683 104.53C780.821 115.018 776.674 124.536 772.323 132.379C767.953 140.257 763.468 146.275 758.994 149.925C754.572 153.533 750.431 154.638 746.398 153.383C742.176 152.068 737.406 147.979 732.324 139.584C722.178 122.827 711.758 90.5553 701.778 36.5046C701.553 35.2899 700.476 34.4211 699.241 34.4598C698.006 34.4984 696.985 35.433 696.837 36.6594C694.145 58.9937 687.94 84.944 678.875 107.572C669.763 130.314 657.949 149.225 644.315 158.052C637.584 162.409 630.485 164.265 622.998 163.017C615.462 161.76 607.218 157.306 598.357 148.436C580.576 130.636 560.908 95.6544 540.136 36.1348C539.732 34.9764 538.547 34.2826 537.339 34.497C536.131 34.7114 535.257 35.7706 535.276 36.9973C535.619 59.1125 532.4 83.4413 526.026 104.13C519.612 124.954 510.174 141.531 498.488 148.858C492.748 152.457 486.456 153.836 479.539 152.405C472.551 150.96 464.702 146.598 456.05 138.276C438.709 121.596 418.719 89.5721 396.568 36.0032C396.142 34.9738 395.087 34.3502 393.98 34.474C392.873 34.5979 391.981 35.4394 391.794 36.5375C386.431 67.9236 378.815 100.292 366.387 126.529C353.951 152.782 336.897 172.493 312.856 179.308C288.8 186.128 256.978 180.256 214.496 153.515C172.04 126.79 119.3 79.4398 53.6426 4.04097Z" fill="#FFFF99" stroke="white" stroke-width="5" stroke-linejoin="round"/>
</svg>
