<svg width="44" height="39" viewBox="0 0 44 39" fill="none" xmlns="http://www.w3.org/2000/svg">
<path d="M1.23679 37.904C1.36283 37.9495 1.47195 37.9678 1.58295 37.9678C1.9498 37.9678 2.21507 37.7127 2.21507 37.3592C2.21507 37.033 2.01189 36.7998 1.72781 36.7998C1.55285 36.7998 1.40799 36.88 1.23867 37.0676V37.904H1.23679ZM1.0844 35.9853H1.23491V36.9C1.38165 36.7579 1.5171 36.6759 1.74286 36.6759C2.11348 36.6759 2.37122 36.9528 2.37122 37.3501C2.37122 37.8147 2.05892 38.1135 1.58295 38.1135C1.41363 38.1135 1.27441 38.0826 1.08252 38.0097V35.9853H1.0844Z" fill="#FF3300"/>
<rect x="8.11328" y="6.38489" width="26.5202" height="19.7283" rx="4" fill="white"/>
<path d="M2.83349 38.7932H2.67923L3.17213 37.8183L2.57764 36.7032H2.73567L3.24738 37.6707L3.73464 36.7032H3.88891L2.83349 38.7932Z" fill="#FF3300"/>
<path d="M28.3041 38.1937V33.4598H27.3165L25.3411 36.9656L23.3281 33.4598H22.3291V38.1937H22.8446V34.5221L24.9648 38.1937H25.2282L27.292 34.5513V37.6854C27.292 37.7929 27.3146 37.8803 27.3578 37.9478C27.3992 38.0134 27.4538 38.0662 27.5178 38.1026C27.5798 38.1391 27.6494 38.1628 27.7228 38.1755C27.7943 38.1865 27.8583 38.1937 27.9166 38.1937H28.3041Z" fill="#FF3300"/>
<path d="M8.58022 33.4598V35.5626H6.08748V33.4598H5.0791V38.1937H6.08748V35.9871H8.58022L8.57833 37.6854C8.57833 37.7929 8.59903 37.8803 8.6423 37.9478C8.68557 38.0134 8.73825 38.0662 8.80409 38.1026C8.86617 38.1391 8.93578 38.1628 9.00915 38.1755C9.08064 38.1883 9.14461 38.1937 9.20293 38.1937H9.59048V33.4598H8.58022Z" fill="#FF3300"/>
<path d="M39.8843 33.458C39.856 33.458 39.8259 33.4598 39.7921 33.4653C39.7563 33.4726 39.7206 33.4835 39.6905 33.5017C39.6566 33.5218 39.6284 33.5491 39.6077 33.5819C39.5851 33.6165 39.5738 33.6621 39.5738 33.7168V36.7706L36.2138 33.4598H35.5667V38.1937H36.1555V34.6242L39.5644 38.0753C39.7036 38.2028 39.8955 38.1937 40.0818 38.1937H40.1514V33.4598H39.8843V33.458Z" fill="#FF3300"/>
<path d="M17.8988 33.8735V35.6665H18.3654C18.3654 35.6665 18.8282 35.6737 19.1292 35.5043C19.4302 35.3348 19.6428 35.0998 19.6428 34.7481C19.6428 34.3964 19.4133 34.0848 19.0878 33.9628C19.0878 33.9628 18.9016 33.8735 18.5705 33.8735H17.8988ZM19.9062 37.8129L18.4181 36.0291H17.9007V38.1919H16.8923V33.458H18.7454C18.7454 33.458 19.5092 33.4471 20.0097 33.6913C20.5101 33.9372 20.7208 34.2816 20.7208 34.7189C20.7208 35.1563 20.4537 35.6737 19.4961 35.9325L21.4244 38.1919H20.6512C20.6512 38.1919 20.4894 38.1938 20.2994 38.13C20.1113 38.068 19.9062 37.8129 19.9062 37.8129Z" fill="#FF3300"/>
<path d="M34.6337 38.1938L32.1108 33.3542H31.8155L29.2324 38.1938H29.8232L30.6265 36.6887H32.4589L32.2049 36.2058H30.8823L31.7327 34.6151L33.3995 37.8184C33.4654 37.9496 33.5481 38.0462 33.6422 38.1063C33.7382 38.1664 33.8661 38.1956 34.0185 38.1956H34.6337V38.1938Z" fill="#FF3300"/>
<path d="M13.4177 33.3542H13.1224L10.5337 38.192H11.1225L13.0377 34.6133L13.8655 36.204H12.5373L12.2814 36.6869H14.1195L14.7008 37.8166C14.7666 37.9478 14.8494 38.0444 14.9454 38.1045C15.0413 38.1646 15.1692 38.192 15.3216 38.192H15.9425L13.4177 33.3542Z" fill="#FF3300"/>
<path d="M41.2424 30.0506C41.2424 30.6501 41.7447 31.133 42.3618 31.133C42.9789 31.133 43.4812 30.6501 43.4812 30.0506C43.4812 29.4566 42.9789 28.9683 42.3618 28.9683C41.7447 28.9701 41.2424 29.4566 41.2424 30.0506ZM41.4531 30.0506C41.4531 29.5677 41.8595 29.176 42.3618 29.176C42.8641 29.176 43.2705 29.5677 43.2705 30.0506C43.2705 30.5371 42.8641 30.9307 42.3618 30.9307C41.8614 30.9307 41.4531 30.5389 41.4531 30.0506ZM41.9348 30.6628H42.1455V30.1362H42.3298L42.6478 30.6628H42.8905L42.5405 30.129C42.7362 30.1089 42.8811 30.0215 42.8811 29.7992C42.8811 29.5422 42.7136 29.4402 42.4013 29.4402H41.9329V30.6628H41.9348ZM42.1455 29.9668V29.6078H42.4032C42.5274 29.6078 42.6703 29.6352 42.6703 29.7809C42.6703 29.9467 42.5481 29.9686 42.3994 29.9686H42.1455V29.9668Z" fill="#FF3300"/>
<path d="M33.3033 22.0296H26.5908V9.00499H28.807V20.1492C28.807 20.7578 29.3187 21.2516 29.949 21.2516C30.5792 21.2516 31.0909 20.7559 31.0909 20.1492L31.089 17.8824H33.3033V22.0296ZM24.9785 13.3471C24.9785 13.9958 24.3916 15.1456 23.5186 15.1456C24.3916 15.1456 24.9785 15.8744 24.9785 16.4247V20.3296C24.9785 20.9928 24.4254 22.0314 22.7642 22.0314H18.3338V9.00499H22.7642C23.6184 9.00499 24.9785 9.68464 24.9785 11.1278V13.3471ZM16.6538 19.761C16.6538 21.0584 15.7808 22.2228 13.2975 22.2228C10.8142 22.2228 9.94124 20.6994 9.94124 19.761V17.8824H12.1555L12.1574 20.1492C12.1574 20.7578 12.6691 21.2516 13.2994 21.2516C13.9296 21.2516 14.4394 20.7414 14.4394 20.1346L14.4376 9.00499H16.6538V19.761ZM11.0475 13.9885C11.7548 13.9885 12.3286 14.5406 12.3286 15.2258C12.3286 15.9072 11.7548 16.463 11.0475 16.463C10.3382 16.463 9.7644 15.9072 9.7644 15.2258C9.76628 14.5425 10.3382 13.9885 11.0475 13.9885ZM13.0943 9.00499L11.0475 13.5093L9.00059 9.00499H13.0943ZM0.944824 31.1002H40.1513V0H0.944824V31.1002ZM21.8894 15.7123H20.5462V20.96L21.8894 20.9618C22.7642 20.9618 22.7642 20.3915 22.7642 18.3507C22.7642 16.3099 22.7642 15.7123 21.8894 15.7123ZM21.7559 10.2368H20.5462V14.6099L21.7559 14.6135C22.5611 14.6135 22.7624 14.4823 22.7624 12.4397C22.7642 10.3989 22.5611 10.2368 21.7559 10.2368Z" fill="#FF3300"/>
</svg>
