<svg width="100" height="36" viewBox="0 0 100 36" fill="none" xmlns="http://www.w3.org/2000/svg">
<path d="M96.9948 25.3222C96.161 30.7742 91.0654 34.5179 85.6135 33.684L10.8716 22.2529C5.41964 21.4191 1.67594 16.3235 2.50976 10.8716C3.34359 5.41965 8.43918 1.67595 13.8911 2.50977L88.633 13.9409C94.085 14.7747 97.8287 19.8703 96.9948 25.3222Z" fill="#666666" stroke="#2A3D50" stroke-miterlimit="10"/>
<path d="M71.1709 14.8782L69.0141 28.9804" stroke="white" stroke-miterlimit="10" stroke-linecap="round"/>
<path d="M78.6533 13.1362L75.8495 31.4692" stroke="#2A3D50" stroke-miterlimit="10"/>
<path d="M24.2681 24.3019L19.07 23.5069C13.4122 22.6416 9.47062 17.7264 10.3359 12.0686C11.2012 6.41077 16.4317 2.89842 22.0896 3.76373L27.2877 4.55873" fill="#666666"/>
<path d="M24.2681 24.3019L19.07 23.5069C13.4122 22.6416 9.47062 17.7264 10.3359 12.0686C11.2012 6.41077 16.4317 2.89842 22.0896 3.76373L27.2877 4.55873" stroke="#2A3D50" stroke-miterlimit="10"/>
</svg>
