<svg width="46" height="21" viewBox="0 0 46 21" fill="none" xmlns="http://www.w3.org/2000/svg">
<path d="M12.3523 3.49297C12.3523 3.49297 9.7372 5.85202 9.26172 8.44698L11.1042 16.5857C11.1042 16.5857 14.6406 21.3472 18.0878 20.8292L22.6841 19.564C22.6841 19.564 25.5767 16.8511 25.4973 14.728L23.7934 6.62862C23.7934 6.62862 21.8073 3.77323 19.1574 2.77063L12.3523 3.49297Z" fill="#CCCCCC" stroke="#2A3D50" stroke-width="0.2" stroke-miterlimit="10"/>
<path d="M12.2539 4.92892C12.4318 4.92892 12.5761 4.75046 12.5761 4.53032C12.5761 4.31018 12.4318 4.13171 12.2539 4.13171C12.0759 4.13171 11.9316 4.31018 11.9316 4.53032C11.9316 4.75046 12.0759 4.92892 12.2539 4.92892Z" fill="#2A3D50"/>
<path d="M23.0657 7.42049C23.2574 7.42049 23.4127 7.23875 23.4127 7.01457C23.4127 6.79038 23.2574 6.60864 23.0657 6.60864C22.8741 6.60864 22.7188 6.79038 22.7188 7.01457C22.7188 7.23875 22.8741 7.42049 23.0657 7.42049Z" fill="#2A3D50"/>
<path d="M19.2686 3.98511C19.4493 3.98511 19.5958 3.82547 19.5958 3.62854C19.5958 3.43162 19.4493 3.27197 19.2686 3.27197C19.0879 3.27197 18.9414 3.43162 18.9414 3.62854C18.9414 3.82547 19.0879 3.98511 19.2686 3.98511Z" fill="#2A3D50"/>
<path d="M7.85289 8.82174C7.85289 8.41009 7.492 8.1973 6.58573 7.82858C5.47715 7.37777 3.94087 6.35418 2.57386 6.7965C1.20685 7.23882 -0.189876 9.47992 0.850239 12.1633C1.89035 14.8468 4.53736 14.424 4.92155 14.2643C7.38787 13.2398 7.85289 9.17136 7.85289 8.82174Z" fill="#666666" stroke="#2A3D50" stroke-width="0.2" stroke-miterlimit="10"/>
<path d="M10.0186 9.02257C10.1993 9.02257 10.3458 8.84749 10.3458 8.63152C10.3458 8.41556 10.1993 8.24048 10.0186 8.24048C9.83791 8.24048 9.69141 8.41556 9.69141 8.63152C9.69141 8.84749 9.83791 9.02257 10.0186 9.02257Z" fill="#2A3D50"/>
<path d="M11.4952 16.6456C11.6554 16.6456 11.7853 16.4837 11.7853 16.284C11.7853 16.0843 11.6554 15.9225 11.4952 15.9225C11.335 15.9225 11.2051 16.0843 11.2051 16.284C11.2051 16.4837 11.335 16.6456 11.4952 16.6456Z" fill="#2A3D50"/>
<path d="M15.5587 20.0265C15.7066 20.0265 15.8265 19.8998 15.8265 19.7436C15.8265 19.5873 15.7066 19.4607 15.5587 19.4607C15.4109 19.4607 15.291 19.5873 15.291 19.7436C15.291 19.8998 15.4109 20.0265 15.5587 20.0265Z" fill="#2A3D50"/>
<path d="M22.4552 18.8468C22.6031 18.8468 22.723 18.7201 22.723 18.5639C22.723 18.4077 22.6031 18.281 22.4552 18.281C22.3074 18.281 22.1875 18.4077 22.1875 18.5639C22.1875 18.7201 22.3074 18.8468 22.4552 18.8468Z" fill="#2A3D50"/>
<path d="M24.5958 14.8365C24.7437 14.8365 24.8636 14.7099 24.8636 14.5536C24.8636 14.3974 24.7437 14.2708 24.5958 14.2708C24.448 14.2708 24.3281 14.3974 24.3281 14.5536C24.3281 14.7099 24.448 14.8365 24.5958 14.8365Z" fill="#2A3D50"/>
<path d="M10.7478 6.13306C10.8329 6.13306 10.9019 6.07341 10.9019 5.99982C10.9019 5.92623 10.8329 5.86658 10.7478 5.86658C10.6627 5.86658 10.5938 5.92623 10.5938 5.99982C10.5938 6.07341 10.6627 6.13306 10.7478 6.13306Z" fill="#2A3D50"/>
<path d="M21.2088 4.95374C21.2939 4.95374 21.3628 4.89409 21.3628 4.8205C21.3628 4.74691 21.2939 4.68726 21.2088 4.68726C21.1237 4.68726 21.0547 4.74691 21.0547 4.8205C21.0547 4.89409 21.1237 4.95374 21.2088 4.95374Z" fill="#2A3D50"/>
<path d="M19.5923 19.302C16.4123 20.2119 11.983 17.3126 10.8975 13.5778C9.68164 9.39495 10.9769 5.18192 15.2907 3.94742C18.5113 3.02574 22.5413 6.03825 23.6268 9.7731C24.8426 13.9559 23.4716 18.1921 19.5923 19.302Z" fill="#333333" stroke="#2A3D50" stroke-width="0.2" stroke-miterlimit="10"/>
<path d="M19.5954 17.3818C17.1348 18.2039 13.7187 16.8805 12.5797 12.7817C11.681 9.54789 13.334 6.41837 15.8289 5.70452C18.3235 4.99068 21.7027 6.92604 22.1884 10.2457C22.7231 13.9022 21.8019 16.6446 19.5954 17.3818Z" fill="#666666" stroke="#2A3D50" stroke-width="0.2" stroke-miterlimit="10"/>
<path d="M3.96 12.7236C2.89354 13.0763 1.59977 12.6103 1.21289 11.1474C0.829111 9.69565 1.55649 8.41658 2.66813 8.24929C3.90056 8.0636 5.26852 9.00361 5.37196 10.0437C5.52533 11.5861 4.91613 12.4071 3.96 12.7236Z" fill="#333333" stroke="#2A3D50" stroke-width="0.2" stroke-miterlimit="10"/>
<path d="M27.8306 1.73379C27.8306 1.73379 25.3926 3.98126 24.9492 6.45354L26.6669 14.2073C26.6669 14.2073 29.9639 18.7437 33.1777 18.25L37.4627 17.0447C37.4627 17.0447 40.1594 14.4602 40.0854 12.4375L38.4971 4.72129C38.4971 4.72129 36.6456 2.00083 34.175 1.04565L27.8306 1.73379Z" fill="#CCCCCC" stroke="#2A3D50" stroke-width="0.2" stroke-miterlimit="10"/>
<path d="M27.7437 3.10196C27.9096 3.10196 28.044 2.93195 28.044 2.72224C28.044 2.51253 27.9096 2.34253 27.7437 2.34253C27.5778 2.34253 27.4434 2.51253 27.4434 2.72224C27.4434 2.93195 27.5778 3.10196 27.7437 3.10196Z" fill="#2A3D50"/>
<path d="M37.8217 5.47564C38.0004 5.47564 38.1453 5.30257 38.1453 5.08908C38.1453 4.87558 38.0004 4.70251 37.8217 4.70251C37.6429 4.70251 37.498 4.87558 37.498 5.08908C37.498 5.30257 37.6429 5.47564 37.8217 5.47564Z" fill="#2A3D50"/>
<path d="M34.2816 2.2028C34.4501 2.2028 34.5867 2.05067 34.5867 1.863C34.5867 1.67533 34.4501 1.52319 34.2816 1.52319C34.1132 1.52319 33.9766 1.67533 33.9766 1.863C33.9766 2.05067 34.1132 2.2028 34.2816 2.2028Z" fill="#2A3D50"/>
<path d="M25.6566 7.00197C25.8251 7.00197 25.9617 6.83514 25.9617 6.62934C25.9617 6.42354 25.8251 6.25671 25.6566 6.25671C25.4882 6.25671 25.3516 6.42354 25.3516 6.62934C25.3516 6.83514 25.4882 7.00197 25.6566 7.00197Z" fill="#2A3D50"/>
<path d="M27.036 14.2641C27.1853 14.2641 27.3063 14.1099 27.3063 13.9196C27.3063 13.7293 27.1853 13.5751 27.036 13.5751C26.8867 13.5751 26.7656 13.7293 26.7656 13.9196C26.7656 14.1099 26.8867 14.2641 27.036 14.2641Z" fill="#2A3D50"/>
<path d="M30.8239 17.4852C30.9617 17.4852 31.0735 17.3645 31.0735 17.2157C31.0735 17.0669 30.9617 16.9463 30.8239 16.9463C30.686 16.9463 30.5742 17.0669 30.5742 17.2157C30.5742 17.3645 30.686 17.4852 30.8239 17.4852Z" fill="#2A3D50"/>
<path d="M37.2516 16.3614C37.3895 16.3614 37.5012 16.2408 37.5012 16.0919C37.5012 15.9431 37.3895 15.8225 37.2516 15.8225C37.1137 15.8225 37.002 15.9431 37.002 16.0919C37.002 16.2408 37.1137 16.3614 37.2516 16.3614Z" fill="#2A3D50"/>
<path d="M39.2477 12.5411C39.3856 12.5411 39.4973 12.4204 39.4973 12.2716C39.4973 12.1228 39.3856 12.0022 39.2477 12.0022C39.1098 12.0022 38.998 12.1228 38.998 12.2716C38.998 12.4204 39.1098 12.5411 39.2477 12.5411Z" fill="#2A3D50"/>
<path d="M26.3389 4.24882C26.4182 4.24882 26.4825 4.19203 26.4825 4.12197C26.4825 4.05191 26.4182 3.99512 26.3389 3.99512C26.2596 3.99512 26.1953 4.05191 26.1953 4.12197C26.1953 4.19203 26.2596 4.24882 26.3389 4.24882Z" fill="#2A3D50"/>
<path d="M36.0889 3.12541C36.1682 3.12541 36.2325 3.06861 36.2325 2.99856C36.2325 2.9285 36.1682 2.8717 36.0889 2.8717C36.0096 2.8717 35.9453 2.9285 35.9453 2.99856C35.9453 3.06861 36.0096 3.12541 36.0889 3.12541Z" fill="#2A3D50"/>
<path d="M34.5872 16.7951C31.6226 17.6621 27.4933 14.8999 26.4812 11.3415C25.3479 7.35657 26.5554 3.34265 30.577 2.16666C33.5797 1.28862 37.3367 4.15864 38.3488 7.7168C39.4818 11.7019 38.2035 15.7376 34.5872 16.7951Z" fill="#333333" stroke="#2A3D50" stroke-width="0.2" stroke-miterlimit="10"/>
<path d="M34.5861 14.9657C32.2921 15.7489 29.1073 14.4882 28.0453 10.583C27.2075 7.50234 28.7486 4.52074 31.0744 3.84062C33.4002 3.16051 36.5505 5.00434 37.0034 8.16712C37.5019 11.6507 36.643 14.2634 34.5861 14.9657Z" fill="#666666" stroke="#2A3D50" stroke-width="0.2" stroke-miterlimit="10"/>
<path d="M7.49233 8.86753C7.49233 9.0836 7.34573 9.2241 7.16511 9.2241C6.98448 9.2241 6.83789 9.08336 6.83789 8.86753C6.83789 8.6517 6.98448 8.53552 7.16511 8.53552C7.34573 8.53552 7.49233 8.6517 7.49233 8.86753Z" fill="#2A3D50"/>
<path d="M40.5059 4.50544C40.5059 4.09379 41.2564 1.5354 43.0692 1.5354C43.9885 1.5354 45.1915 2.5262 45.1915 4.3974C45.1915 5.61632 44.6119 7.42217 43.349 7.42217C41.6251 7.42217 40.5059 5.27803 40.5059 4.50544Z" fill="#666666" stroke="#2A3D50" stroke-width="0.2" stroke-miterlimit="10"/>
<path d="M43.0478 6.64428C43.8613 6.64428 44.2705 5.74462 44.2705 4.67484C44.2705 3.42503 43.6228 2.61597 42.9498 2.61597C42.3751 2.61597 41.8532 3.53828 41.8277 4.47924C41.7902 5.87486 42.4346 6.64428 43.0478 6.64428Z" fill="#333333" stroke="#2A3D50" stroke-width="0.2" stroke-miterlimit="10"/>
<path d="M40.7676 4.44064C40.7676 4.65671 40.8706 4.79107 41.0008 4.79107C41.1312 4.79107 41.234 4.65647 41.234 4.44064C41.234 4.22481 41.1312 4.09021 41.0008 4.09021C40.8706 4.08997 40.7676 4.22457 40.7676 4.44064Z" fill="#2A3D50"/>
</svg>
