<svg width="77" height="38" viewBox="0 0 77 38" fill="none" xmlns="http://www.w3.org/2000/svg">
<path d="M72.4922 11.2773C72.4922 11.2773 73.1374 13.0205 73.0638 13.8904C72.9903 14.7603 72.6539 14.9305 72.8222 16.7256C72.9905 18.5208 73.3946 22.0241 73.4191 22.5142C73.4437 23.0042 73.5661 25.7482 73.9213 27.0098C74.2766 28.2713 74.5962 28.996 74.6441 29.6189C74.791 31.5299 74.6931 34.2002 74.595 34.8618" stroke="#2A3D50" stroke-width="0.5" stroke-miterlimit="10"/>
<path d="M41.5706 5.12841C41.5706 5.12841 48.9095 5.16557 51.9215 5.58958C52.7921 5.71198 54.2898 5.98178 55.4127 6.33464C57.9458 7.13045 60.758 8.73519 62.15 10.6024C64.1588 13.2973 66.9518 17.7587 67.5398 20.6007C68.1277 23.4428 69.1078 35.3015 68.8628 36.4774C68.8628 36.4774 69.3038 36.9679 70.1859 36.9679C71.0679 36.9679 74.3997 36.2333 74.5957 34.8612C74.5957 34.8612 75.7716 35.6454 76.0657 34.8615C76.3598 34.0776 76.5558 31.7746 76.1638 29.6677C75.7718 27.5608 74.6938 26.9728 74.4488 25.4538C74.2038 23.9348 72.8807 17.4049 73.2239 16.7254C73.567 16.0459 74.3509 14.3311 73.6649 12.9102C73.2484 12.0476 72.7056 11.4376 71.9815 10.7955C71.5128 10.38 70.9683 9.95088 70.333 9.43119C68.7161 8.10816 59.6513 2.86361 54.3595 1.93254C49.0676 1.00146 42.423 1 41.8008 1H35.5822C34.96 1 28.3155 1.00194 23.0238 1.93278C17.7322 2.86361 8.66715 8.10743 7.05026 9.43046C6.41497 9.95016 5.87051 10.3798 5.40181 10.7953C4.67764 11.4374 4.13488 12.0474 3.71839 12.91C3.03235 14.3309 3.8165 16.0459 4.1594 16.7254C4.50231 17.4046 3.17951 23.9348 2.93448 25.4538C2.68945 26.9728 1.61144 27.5608 1.21949 29.6677C0.827531 31.7746 1.02351 34.0776 1.3176 34.8615C1.61169 35.6454 2.78756 34.8615 2.78756 34.8615C2.98353 36.2333 6.31541 36.9684 7.19743 36.9684C8.07945 36.9684 8.52047 36.4784 8.52047 36.4784C8.27543 35.3025 9.25532 23.4447 9.8435 20.6029C10.4317 17.7611 13.2244 13.3022 15.2333 10.6073C16.6253 8.74005 19.4374 7.14041 21.9706 6.34435C23.0935 5.99149 24.5912 5.71173 25.4618 5.58934C28.4738 5.16557 35.8127 5.12817 35.8127 5.12817L41.5706 5.12841Z" fill="#666666" stroke="#2A3D50" stroke-width="0.5" stroke-miterlimit="10"/>
<path d="M4.89088 11.2772C4.89088 11.2772 4.24563 13.0204 4.31921 13.8903C4.39279 14.7601 4.72914 14.9304 4.56085 16.7255C4.39255 18.5206 3.98845 22.024 3.96393 22.514C3.9394 23.0041 3.817 25.748 3.46172 27.0096C3.10643 28.2712 2.78684 28.9959 2.739 29.6188C2.59208 31.5298 2.68995 34.2001 2.78806 34.8616" stroke="#2A3D50" stroke-width="0.5" stroke-miterlimit="10"/>
<path d="M72.2686 11.0516C72.2686 11.0516 73.0058 13.0206 72.9323 13.8903C72.8587 14.7599 72.5223 14.9304 72.6906 16.7255C72.8589 18.5207 73.263 22.024 73.2875 22.5141C73.3121 23.0041 73.4345 25.7481 73.7897 27.0097C74.145 28.2712 74.4646 28.9959 74.5125 29.6188C74.6594 31.5298 74.6924 34.1931 74.5946 34.8546" stroke="#2A3D50" stroke-width="0.5" stroke-miterlimit="10"/>
<path d="M29.875 4.04623L30.3153 3.35266" stroke="#FF2A07" stroke-width="0.5" stroke-miterlimit="10" stroke-linecap="round"/>
<path d="M31.0596 4.19776L31.6922 3.20135" stroke="#FF2A07" stroke-width="0.5" stroke-miterlimit="10" stroke-linecap="round"/>
<path d="M32.2979 4.27476L33.0172 3.12439" stroke="#FF2A07" stroke-width="0.5" stroke-miterlimit="10" stroke-linecap="round"/>
<path d="M33.6211 4.21129L34.2581 3.18768" stroke="#FF2A07" stroke-width="0.5" stroke-miterlimit="10" stroke-linecap="round"/>
<path d="M34.8594 4.17031L35.5821 3.07385" stroke="#FF2A07" stroke-width="0.5" stroke-miterlimit="10" stroke-linecap="round"/>
<path d="M36.1309 4.26019L36.8715 3.17004" stroke="#FF2A07" stroke-width="0.5" stroke-miterlimit="10" stroke-linecap="round"/>
<path d="M37.4189 4.37044L38.1472 3.23901" stroke="#FF2A07" stroke-width="0.5" stroke-miterlimit="10" stroke-linecap="round"/>
<path d="M38.708 4.24118L39.4213 3.15784" stroke="#FF2A07" stroke-width="0.5" stroke-miterlimit="10" stroke-linecap="round"/>
<path d="M39.9697 4.2927L40.7226 3.10638" stroke="#FF2A07" stroke-width="0.5" stroke-miterlimit="10" stroke-linecap="round"/>
<path d="M41.2471 4.26914L42.0067 3.12994" stroke="#FF2A07" stroke-width="0.5" stroke-miterlimit="10" stroke-linecap="round"/>
<path d="M42.5215 4.26914L43.2933 3.12994" stroke="#FF2A07" stroke-width="0.5" stroke-miterlimit="10" stroke-linecap="round"/>
<path d="M43.8164 4.26914L44.5636 3.12994" stroke="#FF2A07" stroke-width="0.5" stroke-miterlimit="10" stroke-linecap="round"/>
<path d="M45.0947 4.2927L45.8478 3.10638" stroke="#FF2A07" stroke-width="0.5" stroke-miterlimit="10" stroke-linecap="round"/>
<path d="M46.376 4.2927L47.1288 3.10638" stroke="#FF2A07" stroke-width="0.5" stroke-miterlimit="10" stroke-linecap="round"/>
<path d="M47.7891 4.08362L48.2767 3.31549" stroke="#FF2A07" stroke-width="0.5" stroke-miterlimit="10" stroke-linecap="round"/>
</svg>
