<svg width="107" height="71" viewBox="0 0 107 71" fill="none" xmlns="http://www.w3.org/2000/svg">
<path d="M98.3528 56.3991C97.6957 61.9233 92.6847 65.8688 87.1606 65.2117L11.4284 56.2029C5.90419 55.5458 1.95869 50.5348 2.61582 45.0107C3.27296 39.4865 8.28387 35.541 13.808 36.1981L89.5403 45.2069C95.0644 45.8641 99.0099 50.875 98.3528 56.3991Z" fill="#666666" stroke="#2A3D50" stroke-miterlimit="10"/>
<path d="M89.0651 55.2943C88.4862 60.1612 84.4358 63.4384 79.9833 62.9088L18.946 55.648C14.4935 55.1184 11.325 50.9824 11.904 46.1156C12.4829 41.2487 16.5333 37.9715 20.9857 38.5011L82.0231 45.7619C86.4755 46.2915 89.6441 50.4275 89.0651 55.2943Z" fill="#666666" stroke="#2A3D50" stroke-miterlimit="10"/>
<path d="M29.7998 54.0409L69.8093 58.8003" stroke="#999999" stroke-miterlimit="10" stroke-linecap="round"/>
<path d="M56.8799 45.6692L69.7401 47.199" stroke="white" stroke-miterlimit="10" stroke-linecap="round"/>
<path d="M48.5114 49.021L37.0801 47.6611L36.7401 50.519L48.1714 51.8788L48.5114 49.021Z" fill="#666666" stroke="#2A3D50" stroke-miterlimit="10"/>
<path d="M65.658 51.0608L59.9424 50.3809L59.6024 53.2387L65.3181 53.9186L65.658 51.0608Z" fill="#666666" stroke="#2A3D50" stroke-miterlimit="10"/>
<path d="M23.0126 51.5438C25.1173 51.7941 27.0265 50.2909 27.2769 48.1862C27.5272 46.0815 26.024 44.1723 23.9193 43.922C21.8146 43.6716 19.9054 45.1748 19.6551 47.2795C19.4047 49.3842 20.9079 51.2934 23.0126 51.5438Z" fill="#666666" stroke="#2A3D50" stroke-miterlimit="10"/>
<path d="M76.5779 57.0692C78.2217 57.2648 79.7128 56.0907 79.9083 54.4469C80.1039 52.8031 78.9298 51.3119 77.286 51.1164C75.6422 50.9208 74.151 52.0949 73.9555 53.7388C73.76 55.3826 74.934 56.8737 76.5779 57.0692Z" fill="#666666" stroke="#2A3D50" stroke-miterlimit="10"/>
<path d="M96.6496 60.7752C93.7194 65.5041 87.5106 66.9622 82.7817 64.032L17.9523 23.8615C13.2234 20.9313 11.7653 14.7224 14.6954 9.99353C17.6256 5.26465 23.8345 3.80652 28.5634 6.7367L93.3928 46.9073C98.1217 49.8374 99.5798 56.0463 96.6496 60.7752Z" fill="#666666" stroke="#2A3D50" stroke-miterlimit="10"/>
</svg>
