<svg width="44" height="31" viewBox="0 0 44 31" fill="none" xmlns="http://www.w3.org/2000/svg">
<g clip-path="url(#clip0)">
<path d="M7.04821 1.87004C7.37647 0.812341 8.55189 0.0191206 9.66 0.107279L22.9801 1.16618C24.0884 1.25434 24.827 2.21643 24.6214 3.30451L22.8418 12.7292C22.6365 13.817 21.5631 14.6185 20.4567 14.5102L5.64761 13.0593C4.54112 12.9508 3.9046 11.9969 4.23286 10.9392L7.04821 1.87004Z" fill="#666666"/>
<path d="M20.6581 14.6205C20.5879 14.6205 20.5176 14.6171 20.4468 14.6102L5.63758 13.1595C5.0716 13.1041 4.60306 12.8382 4.31804 12.4109C4.03303 11.9836 3.96855 11.4504 4.13653 10.9096L6.95146 1.84042C7.28923 0.75274 8.5073 -0.0857671 9.66796 0.0070202L22.9879 1.06592C23.5528 1.11101 24.0448 1.37146 24.3733 1.79957C24.7018 2.22747 24.8251 2.7687 24.7204 3.32321L22.9408 12.7479C22.7394 13.8154 21.7579 14.6205 20.6581 14.6205ZM9.49028 0.201249C8.47071 0.201249 7.44023 0.947372 7.1447 1.8996L4.32936 10.9688C4.17978 11.4508 4.23537 11.9234 4.48622 12.2992C4.73687 12.6752 5.15286 12.9095 5.65719 12.959L20.4664 14.4098C21.5238 14.5142 22.5498 13.7303 22.7425 12.7104L24.5221 3.28577C24.6161 2.78802 24.5063 2.30356 24.213 1.92134C23.9199 1.53932 23.4791 1.30665 22.9719 1.26639L9.65179 0.20769C9.59822 0.203262 9.54425 0.201249 9.49028 0.201249Z" fill="#2A3D50"/>
<path d="M22.9744 7.02717C22.9744 10.9166 18.0733 13.4267 13.9127 13.4267C9.25329 13.4267 6.33203 11.5514 6.33203 7.02717C6.33203 4.24093 10.6189 0.986938 14.3922 0.986938C19.0516 0.986938 22.9744 2.95862 22.9744 7.02717Z" fill="#666666"/>
<path d="M13.9122 13.5274C8.81497 13.5274 6.23047 11.3403 6.23047 7.02722C6.23047 4.15766 10.578 0.886353 14.3917 0.886353C19.6666 0.886353 23.075 3.29681 23.075 7.02722C23.075 10.8579 18.246 13.5274 13.9122 13.5274ZM14.3917 1.08763C10.6726 1.08763 6.4326 4.25165 6.4326 7.02722C6.4326 11.2069 8.94899 13.3261 13.9122 13.3261C18.1506 13.3261 22.8729 10.7391 22.8729 7.02722C22.8729 2.64327 18.304 1.08763 14.3917 1.08763Z" fill="#2A3D50"/>
<path d="M21.9307 7.02718C21.9307 9.94363 18.1912 12.7281 14.5528 12.7281C10.4781 12.7281 7.37695 10.9836 7.37695 7.02718C7.37695 4.07328 10.9143 1.32629 14.5528 1.32629C18.6276 1.32629 21.9307 3.46926 21.9307 7.02718Z" fill="#333333"/>
<path d="M14.5523 12.8287C9.92761 12.8287 7.27539 10.7142 7.27539 7.02722C7.27539 4.04515 10.8117 1.22571 14.5523 1.22571C18.9558 1.22571 22.0313 3.61141 22.0313 7.02722C22.0313 9.95495 18.3265 12.8287 14.5523 12.8287ZM14.5523 1.42698C10.9158 1.42698 7.47753 4.14861 7.47753 7.02722C7.47753 10.5861 10.0562 12.6275 14.5523 12.6275C18.2247 12.6275 21.8291 9.85351 21.8291 7.02722C21.8291 3.72976 18.8367 1.42698 14.5523 1.42698Z" fill="#2A3D50"/>
<path d="M14.3921 10.4469C17.5319 10.4469 20.0771 8.59209 20.0771 6.30407C20.0771 4.01606 17.5319 2.16125 14.3921 2.16125C11.2523 2.16125 8.70703 4.01606 8.70703 6.30407C8.70703 8.59209 11.2523 10.4469 14.3921 10.4469Z" fill="#666666"/>
<path d="M14.3916 10.5476C11.2011 10.5476 8.60547 8.64394 8.60547 6.30413C8.60547 3.96432 11.2011 2.06067 14.3916 2.06067C17.5821 2.06067 20.1777 3.96432 20.1777 6.30413C20.1777 8.64394 17.5821 10.5476 14.3916 10.5476ZM14.3916 2.26194C11.3127 2.26194 8.8076 4.07522 8.8076 6.30413C8.8076 8.53303 11.3127 10.3463 14.3916 10.3463C17.4705 10.3463 19.9756 8.53303 19.9756 6.30413C19.9756 4.07522 17.4705 2.26194 14.3916 2.26194Z" fill="#2A3D50"/>
<path d="M20.3304 14.268C20.87 14.268 21.3074 13.8913 21.3074 13.4267C21.3074 12.962 20.87 12.5853 20.3304 12.5853C19.7909 12.5853 19.3535 12.962 19.3535 13.4267C19.3535 13.8913 19.7909 14.268 20.3304 14.268Z" fill="#333333"/>
<path d="M20.3299 14.3687C19.7357 14.3687 19.252 13.946 19.252 13.4267C19.252 12.9074 19.7357 12.4847 20.3299 12.4847C20.9242 12.4847 21.4079 12.9072 21.4079 13.4267C21.4079 13.9462 20.9242 14.3687 20.3299 14.3687ZM20.3299 12.686C19.8468 12.686 19.4541 13.0183 19.4541 13.4267C19.4541 13.8351 19.8468 14.1674 20.3299 14.1674C20.813 14.1674 21.2058 13.8351 21.2058 13.4267C21.2058 13.0183 20.8128 12.686 20.3299 12.686Z" fill="#2A3D50"/>
<path d="M22.8474 3.52811C23.3542 3.52811 23.7651 3.159 23.7651 2.70369C23.7651 2.24838 23.3542 1.87927 22.8474 1.87927C22.3406 1.87927 21.9297 2.24838 21.9297 2.70369C21.9297 3.159 22.3406 3.52811 22.8474 3.52811Z" fill="#333333"/>
<path d="M22.8467 3.6288C22.2852 3.6288 21.8281 3.21377 21.8281 2.70374C21.8281 2.19371 22.2852 1.77869 22.8467 1.77869C23.4084 1.77869 23.8654 2.19371 23.8654 2.70374C23.8654 3.21377 23.4084 3.6288 22.8467 3.6288ZM22.8467 1.97996C22.3963 1.97996 22.0303 2.30462 22.0303 2.70374C22.0303 3.10287 22.3965 3.42752 22.8467 3.42752C23.2968 3.42752 23.6633 3.10287 23.6633 2.70374C23.6633 2.30462 23.2968 1.97996 22.8467 1.97996Z" fill="#2A3D50"/>
<path d="M9.48252 2.11898C9.94748 2.11898 10.3244 1.77547 10.3244 1.35173C10.3244 0.927985 9.94748 0.584473 9.48252 0.584473C9.01755 0.584473 8.64062 0.927985 8.64062 1.35173C8.64062 1.77547 9.01755 2.11898 9.48252 2.11898Z" fill="#333333"/>
<path d="M9.48182 2.21983C8.96213 2.21983 8.53906 1.83037 8.53906 1.35174C8.53906 0.873107 8.96213 0.483643 9.48182 0.483643C10.0017 0.483643 10.4248 0.873107 10.4248 1.35174C10.4248 1.83037 10.0017 2.21983 9.48182 2.21983ZM9.48182 0.685118C9.07331 0.685118 8.7412 0.984211 8.7412 1.35194C8.7412 1.71967 9.07351 2.01876 9.48182 2.01876C9.89014 2.01876 10.2226 1.71967 10.2226 1.35194C10.2226 0.984211 9.89014 0.685118 9.48182 0.685118Z" fill="#2A3D50"/>
<path d="M6.32435 12.5852C6.8314 12.5852 7.24245 12.2035 7.24245 11.7328C7.24245 11.262 6.8314 10.8804 6.32435 10.8804C5.8173 10.8804 5.40625 11.262 5.40625 11.7328C5.40625 12.2035 5.8173 12.5852 6.32435 12.5852Z" fill="#333333"/>
<path d="M6.32365 12.6861C5.76192 12.6861 5.30469 12.2583 5.30469 11.7328C5.30469 11.2073 5.76192 10.7798 6.32365 10.7798C6.88559 10.7798 7.34282 11.2075 7.34282 11.7328C7.34282 12.2583 6.88559 12.6861 6.32365 12.6861ZM6.32365 10.9811C5.87309 10.9811 5.50682 11.3184 5.50682 11.7328C5.50682 12.1474 5.87329 12.4848 6.32365 12.4848C6.77401 12.4848 7.14068 12.1474 7.14068 11.7328C7.14068 11.3184 6.77401 10.9811 6.32365 10.9811Z" fill="#2A3D50"/>
<path d="M17.4421 8.35322C17.3541 8.35322 17.267 8.31538 17.207 8.24232C17.1013 8.1131 17.1203 7.9229 17.25 7.81743C17.8138 7.35893 18.1194 6.89862 18.1586 6.44957C18.196 6.02187 17.9719 5.75035 17.9696 5.74773C17.8601 5.62153 17.874 5.43093 18.0008 5.32184C18.1277 5.21295 18.3193 5.22704 18.4283 5.35303C18.4445 5.37155 18.8224 5.81596 18.7626 6.50191C18.7084 7.11941 18.3288 7.71941 17.6335 8.28499C17.5775 8.33088 17.5096 8.35322 17.4421 8.35322Z" fill="white"/>
<path d="M25.8995 3.30423C26.1057 2.21634 27.1813 1.39615 28.2898 1.48129L42.1738 2.54865C43.2824 2.63379 44.048 3.59829 43.8758 4.69201L42.3883 14.1277C42.2159 15.2213 41.1674 16.0529 40.0585 15.9754L25.7308 14.9761C24.6216 14.8988 23.883 13.9454 24.0892 12.8577L25.8995 3.30423Z" fill="#666666"/>
<path d="M40.2015 16.0811C40.1516 16.0811 40.1015 16.0793 40.0512 16.0759L25.7234 15.0768C25.158 15.0373 24.6654 14.7819 24.3368 14.3576C24.0079 13.9333 23.8846 13.3939 23.9897 12.8392L25.8004 3.28573C26.0137 2.16041 27.1335 1.29231 28.2976 1.38127L42.1817 2.44863C42.7462 2.4921 43.2445 2.75175 43.5845 3.18006C43.9247 3.60817 44.0633 4.151 43.9758 4.70793L42.4883 14.1436C42.3167 15.2299 41.3125 16.0811 40.2015 16.0811ZM28.1308 1.57591C27.121 1.57591 26.1845 2.34336 25.9989 3.32296L24.1882 12.8764C24.094 13.374 24.2033 13.8562 24.4964 14.2346C24.7895 14.6128 25.2304 14.8407 25.7375 14.8761L40.0653 15.8752C41.132 15.9483 42.1249 15.1476 42.2882 14.1122L43.7757 4.67653C43.8547 4.17556 43.7302 3.68828 43.4256 3.30465C43.121 2.92102 42.6735 2.68815 42.1661 2.6491L28.282 1.58174C28.2315 1.57772 28.1812 1.57591 28.1308 1.57591Z" fill="#2A3D50"/>
<path d="M42.1747 8.4361C42.1747 12.3255 37.2062 15.4104 32.6576 14.8749C28.4384 14.3781 24.9932 12.057 25.5323 8.4361C26.0564 4.91482 30.0804 2.39587 33.8536 2.39587C38.513 2.39587 42.1747 4.36755 42.1747 8.4361Z" fill="#666666"/>
<path d="M33.7028 15.0361C33.3468 15.0361 32.9913 15.0154 32.6458 14.9747C29.8515 14.6458 27.5534 13.5517 26.3408 11.9733C25.542 10.9333 25.2364 9.73835 25.4326 8.42122C25.9958 4.63727 30.2422 2.29504 33.8538 2.29504C39.0487 2.29504 42.276 4.64794 42.276 8.43591C42.276 12.2136 37.7495 15.0361 33.7028 15.0361ZM33.8538 2.49652C30.3116 2.49652 26.1625 4.88906 25.6323 8.4508C25.4446 9.71219 25.737 10.8562 26.5013 11.8511C27.681 13.3866 29.9291 14.4522 32.6697 14.7748C33.0072 14.8147 33.3549 14.8348 33.7028 14.8348C37.6543 14.8348 42.0738 12.0983 42.0738 8.43591C42.0738 4.77252 38.9241 2.49652 33.8538 2.49652Z" fill="#2A3D50"/>
<path d="M41.1319 8.43611C41.1319 11.3526 37.3924 14.137 33.7539 14.137C29.6793 14.137 26.5781 12.3926 26.5781 8.43611C26.5781 5.48222 30.1155 2.73523 33.7539 2.73523C37.8288 2.73523 41.1319 4.87819 41.1319 8.43611Z" fill="#333333"/>
<path d="M33.7534 14.2377C29.1288 14.2377 26.4766 12.1231 26.4766 8.43616C26.4766 5.45409 30.0129 2.63464 33.7534 2.63464C38.157 2.63464 41.2324 5.02034 41.2324 8.43616C41.2324 11.3639 37.5277 14.2377 33.7534 14.2377ZM33.7534 2.83592C30.117 2.83592 26.6787 5.55754 26.6787 8.43616C26.6787 11.9951 29.2573 14.0364 33.7534 14.0364C37.4258 14.0364 41.0303 11.2624 41.0303 8.43616C41.0303 5.13869 38.0379 2.83592 33.7534 2.83592Z" fill="#2A3D50"/>
<path d="M33.5933 11.8557C36.733 11.8557 39.2783 10.0009 39.2783 7.71289C39.2783 5.42487 36.733 3.57007 33.5933 3.57007C30.4535 3.57007 27.9082 5.42487 27.9082 7.71289C27.9082 10.0009 30.4535 11.8557 33.5933 11.8557Z" fill="#666666"/>
<path d="M33.5928 11.9564C30.4023 11.9564 27.8066 10.0527 27.8066 7.71294C27.8066 5.37313 30.4023 3.46948 33.5928 3.46948C36.7833 3.46948 39.3789 5.37313 39.3789 7.71294C39.3789 10.0527 36.7833 11.9564 33.5928 11.9564ZM33.5928 3.67076C30.5138 3.67076 28.0088 5.48403 28.0088 7.71294C28.0088 9.94185 30.5138 11.7551 33.5928 11.7551C36.6717 11.7551 39.1768 9.94185 39.1768 7.71294C39.1768 5.48403 36.6717 3.67076 33.5928 3.67076Z" fill="#2A3D50"/>
<path d="M40.5433 15.2743C41.0829 15.2743 41.5202 14.8977 41.5202 14.433C41.5202 13.9683 41.0829 13.5917 40.5433 13.5917C40.0038 13.5917 39.5664 13.9683 39.5664 14.433C39.5664 14.8977 40.0038 15.2743 40.5433 15.2743Z" fill="#333333"/>
<path d="M40.5428 15.375C39.9486 15.375 39.4648 14.9523 39.4648 14.4331C39.4648 13.9138 39.9486 13.4911 40.5428 13.4911C41.1371 13.4911 41.6208 13.9136 41.6208 14.4331C41.6208 14.9525 41.1371 15.375 40.5428 15.375ZM40.5428 13.6924C40.0597 13.6924 39.667 14.0247 39.667 14.4331C39.667 14.8414 40.0597 15.1737 40.5428 15.1737C41.0259 15.1737 41.4187 14.8414 41.4187 14.4331C41.4187 14.0247 41.0257 13.6924 40.5428 13.6924Z" fill="#2A3D50"/>
<path d="M42.0505 4.93692C42.5573 4.93692 42.9682 4.56782 42.9682 4.1125C42.9682 3.65719 42.5573 3.28809 42.0505 3.28809C41.5437 3.28809 41.1328 3.65719 41.1328 4.1125C41.1328 4.56782 41.5437 4.93692 42.0505 4.93692Z" fill="#333333"/>
<path d="M42.0498 5.03761C41.4883 5.03761 41.0312 4.62258 41.0312 4.11255C41.0312 3.60253 41.4883 3.1875 42.0498 3.1875C42.6115 3.1875 43.0686 3.60253 43.0686 4.11255C43.0686 4.62258 42.6115 5.03761 42.0498 5.03761ZM42.0498 3.38877C41.5995 3.38877 41.2334 3.71343 41.2334 4.11255C41.2334 4.51168 41.5997 4.83634 42.0498 4.83634C42.5 4.83634 42.8664 4.51168 42.8664 4.11255C42.8664 3.71343 42.5 3.38877 42.0498 3.38877Z" fill="#2A3D50"/>
<path d="M27.8751 3.5278C28.3401 3.5278 28.717 3.18428 28.717 2.76054C28.717 2.3368 28.3401 1.99329 27.8751 1.99329C27.4101 1.99329 27.0332 2.3368 27.0332 2.76054C27.0332 3.18428 27.4101 3.5278 27.8751 3.5278Z" fill="#333333"/>
<path d="M27.8744 3.62864C27.3547 3.62864 26.9316 3.23918 26.9316 2.76055C26.9316 2.28192 27.3547 1.89246 27.8744 1.89246C28.3943 1.89246 28.8174 2.28192 28.8174 2.76055C28.8174 3.23918 28.3943 3.62864 27.8744 3.62864ZM27.8744 2.09393C27.4659 2.09393 27.1338 2.39302 27.1338 2.76075C27.1338 3.12848 27.4661 3.42757 27.8744 3.42757C28.2827 3.42757 28.6152 3.12848 28.6152 2.76075C28.6152 2.39302 28.2827 2.09393 27.8744 2.09393Z" fill="#2A3D50"/>
<path d="M25.5255 13.9941C26.0326 13.9941 26.4436 13.6125 26.4436 13.1417C26.4436 12.6709 26.0326 12.2893 25.5255 12.2893C25.0185 12.2893 24.6074 12.6709 24.6074 13.1417C24.6074 13.6125 25.0185 13.9941 25.5255 13.9941Z" fill="#333333"/>
<path d="M25.5248 14.095C24.9631 14.095 24.5059 13.6673 24.5059 13.1418C24.5059 12.6162 24.9631 12.1887 25.5248 12.1887C26.0868 12.1887 26.544 12.6164 26.544 13.1418C26.544 13.6673 26.0868 14.095 25.5248 14.095ZM25.5248 12.39C25.0743 12.39 24.708 12.7273 24.708 13.1418C24.708 13.5564 25.0745 13.8937 25.5248 13.8937C25.9752 13.8937 26.3419 13.5564 26.3419 13.1418C26.3419 12.7273 25.9752 12.39 25.5248 12.39Z" fill="#2A3D50"/>
<path d="M36.6452 9.76216C36.5573 9.76216 36.4701 9.72432 36.4101 9.65126C36.3044 9.52204 36.3234 9.33183 36.4532 9.22637C37.0169 8.76786 37.3225 8.30755 37.3618 7.85851C37.3992 7.4308 37.175 7.15928 37.1728 7.15667C37.0632 7.03047 37.0772 6.83986 37.2039 6.73077C37.3308 6.62188 37.5225 6.63597 37.6314 6.76197C37.6476 6.78049 38.0256 7.2249 37.9657 7.91084C37.9116 8.52835 37.532 9.12835 36.8366 9.69392C36.7806 9.73982 36.7127 9.76216 36.6452 9.76216Z" fill="white"/>
<path d="M3.00361 16.1605C3.33188 15.1028 4.50689 14.315 5.61439 14.41L20.3177 15.669C21.4254 15.7638 22.123 16.723 21.8679 17.8004L19.5947 27.4046C19.3396 28.482 18.2272 29.2614 17.1226 29.1364L1.59958 27.3799C0.494914 27.2549 -0.140195 26.2874 0.188072 25.2297L3.00361 16.1605Z" fill="#666666"/>
<path d="M17.3574 29.2501C17.2751 29.2501 17.1924 29.2455 17.1114 29.2362L1.58838 27.4797C1.02361 27.4159 0.556274 27.1424 0.272072 26.7094C-0.0121306 26.2765 -0.0762075 25.7405 0.0917669 25.1997L2.90691 16.1307C3.24366 15.0452 4.46476 14.2077 5.623 14.3095L20.3263 15.5685C20.8919 15.6168 21.3746 15.8791 21.6859 16.307C21.997 16.7347 22.0966 17.2733 21.9664 17.8232L19.6932 27.4276C19.4472 28.4665 18.443 29.2501 17.3574 29.2501ZM5.43198 14.5028C4.41807 14.5028 3.39385 15.2441 3.10015 16.19L0.285008 25.2592C0.135226 25.7417 0.190611 26.2175 0.441259 26.5993C0.691907 26.9811 1.10729 27.2229 1.61122 27.2798L17.1342 29.0363C18.2061 29.1573 19.2546 28.4029 19.4966 27.3815L21.7698 17.7773C21.8862 17.2852 21.7983 16.8049 21.5219 16.4253C21.2458 16.0455 20.8151 15.8127 20.3089 15.7692L5.60561 14.5102C5.5478 14.5054 5.48999 14.5028 5.43198 14.5028Z" fill="#2A3D50"/>
<path d="M18.9302 21.3177C18.8035 26.3475 13.4762 28.608 9.36257 27.9883C5.15148 27.3539 2.09621 25.8379 2.28783 21.3177C2.42771 18.0198 6.83264 15.114 10.6059 15.114C15.2653 15.114 19.0327 17.2505 18.9302 21.3177Z" fill="#666666"/>
<path d="M10.7268 28.189C10.2574 28.189 9.79311 28.155 9.347 28.0878C5.68754 27.5365 1.97492 26.3007 2.18636 21.3135C2.33432 17.8236 6.91309 15.0134 10.6053 15.0134C13.5765 15.0134 16.0328 15.8503 17.5211 17.3701C18.5621 18.4331 19.0701 19.7621 19.0309 21.3203C18.9183 25.7816 14.6686 28.189 10.7268 28.189ZM10.6053 15.2147C7.02285 15.2147 2.52776 18.0329 2.38849 21.322C2.22557 25.1625 4.31565 27.1263 9.37732 27.8889C9.81333 27.9545 10.2673 27.988 10.7268 27.988C14.5728 27.988 18.7196 25.6494 18.8288 21.3153C18.8668 19.8134 18.378 18.5333 17.3764 17.5108C15.9263 16.0301 13.5217 15.2147 10.6053 15.2147Z" fill="#2A3D50"/>
<path d="M17.8858 21.3176C17.8858 24.234 14.1463 27.0185 10.5078 27.0185C6.43319 27.0185 3.33203 25.274 3.33203 21.3176C3.33203 18.3637 6.8694 15.6167 10.5078 15.6167C14.5827 15.6167 17.8858 17.7597 17.8858 21.3176Z" fill="#333333"/>
<path d="M10.5073 27.1192C5.88269 27.1192 3.23047 25.0046 3.23047 21.3176C3.23047 18.3356 6.76683 15.5161 10.5073 15.5161C14.9109 15.5161 17.9863 17.9018 17.9863 21.3176C17.9863 24.2454 14.2816 27.1192 10.5073 27.1192ZM10.5073 15.7174C6.87093 15.7174 3.4326 18.439 3.4326 21.3176C3.4326 24.8766 6.01124 26.9179 10.5073 26.9179C14.1797 26.9179 17.7842 24.1439 17.7842 21.3176C17.7842 18.0202 14.7918 15.7174 10.5073 15.7174Z" fill="#2A3D50"/>
<path d="M10.3472 24.7374C13.4869 24.7374 16.0322 22.8826 16.0322 20.5946C16.0322 18.3066 13.4869 16.4518 10.3472 16.4518C7.20739 16.4518 4.66211 18.3066 4.66211 20.5946C4.66211 22.8826 7.20739 24.7374 10.3472 24.7374Z" fill="#666666"/>
<path d="M10.3467 24.838C7.15617 24.838 4.56055 22.9343 4.56055 20.5945C4.56055 18.2547 7.15617 16.3511 10.3467 16.3511C13.5372 16.3511 16.1328 18.2547 16.1328 20.5945C16.1328 22.9343 13.5372 24.838 10.3467 24.838ZM10.3467 16.5523C7.26774 16.5523 4.76268 18.3656 4.76268 20.5945C4.76268 22.8234 7.26774 24.6367 10.3467 24.6367C13.4256 24.6367 15.9307 22.8234 15.9307 20.5945C15.9307 18.3656 13.4256 16.5523 10.3467 16.5523Z" fill="#2A3D50"/>
<path d="M17.2953 28.5585C17.8348 28.5585 18.2722 28.1818 18.2722 27.7172C18.2722 27.2525 17.8348 26.8759 17.2953 26.8759C16.7557 26.8759 16.3184 27.2525 16.3184 27.7172C16.3184 28.1818 16.7557 28.5585 17.2953 28.5585Z" fill="#333333"/>
<path d="M17.2948 28.6592C16.7005 28.6592 16.2168 28.2365 16.2168 27.7172C16.2168 27.1979 16.7005 26.7753 17.2948 26.7753C17.8891 26.7753 18.3728 27.1977 18.3728 27.7172C18.3728 28.2367 17.8891 28.6592 17.2948 28.6592ZM17.2948 26.9765C16.8117 26.9765 16.4189 27.3088 16.4189 27.7172C16.4189 28.1256 16.8117 28.4579 17.2948 28.4579C17.7779 28.4579 18.1706 28.1256 18.1706 27.7172C18.1706 27.3088 17.7777 26.9765 17.2948 26.9765Z" fill="#2A3D50"/>
<path d="M19.8142 18.0198C20.321 18.0198 20.7319 17.6507 20.7319 17.1954C20.7319 16.7401 20.321 16.371 19.8142 16.371C19.3074 16.371 18.8965 16.7401 18.8965 17.1954C18.8965 17.6507 19.3074 18.0198 19.8142 18.0198Z" fill="#333333"/>
<path d="M19.8135 18.1205C19.252 18.1205 18.7949 17.7055 18.7949 17.1954C18.7949 16.6854 19.252 16.2704 19.8135 16.2704C20.3752 16.2704 20.8322 16.6854 20.8322 17.1954C20.8322 17.7055 20.3752 18.1205 19.8135 18.1205ZM19.8135 16.4717C19.3631 16.4717 18.9971 16.7963 18.9971 17.1954C18.9971 17.5946 19.3633 17.9192 19.8135 17.9192C20.2636 17.9192 20.6301 17.5946 20.6301 17.1954C20.6301 16.7963 20.2636 16.4717 19.8135 16.4717Z" fill="#2A3D50"/>
<path d="M4.83017 16.4094C5.29514 16.4094 5.67207 16.0659 5.67207 15.6421C5.67207 15.2184 5.29514 14.8749 4.83017 14.8749C4.36521 14.8749 3.98828 15.2184 3.98828 15.6421C3.98828 16.0659 4.36521 16.4094 4.83017 16.4094Z" fill="#333333"/>
<path d="M4.82948 16.5102C4.30979 16.5102 3.88672 16.1208 3.88672 15.6421C3.88672 15.1635 4.30979 14.774 4.82948 14.774C5.34937 14.774 5.77244 15.1635 5.77244 15.6421C5.77244 16.1208 5.34937 16.5102 4.82948 16.5102ZM4.82948 14.9755C4.42096 14.9755 4.08885 15.2746 4.08885 15.6423C4.08885 16.0101 4.42116 16.3092 4.82948 16.3092C5.23779 16.3092 5.5703 16.0101 5.5703 15.6423C5.5703 15.2746 5.23779 14.9755 4.82948 14.9755Z" fill="#2A3D50"/>
<path d="M1.672 26.6744C2.17906 26.6744 2.5901 26.2928 2.5901 25.822C2.5901 25.3512 2.17906 24.9696 1.672 24.9696C1.16495 24.9696 0.753906 25.3512 0.753906 25.822C0.753906 26.2928 1.16495 26.6744 1.672 26.6744Z" fill="#333333"/>
<path d="M1.67131 26.7752C1.10957 26.7752 0.652344 26.3475 0.652344 25.8219C0.652344 25.2964 1.10957 24.8689 1.67131 24.8689C2.23324 24.8689 2.69047 25.2966 2.69047 25.8219C2.69047 26.3475 2.23324 26.7752 1.67131 26.7752ZM1.67131 25.0702C1.22075 25.0702 0.854479 25.4075 0.854479 25.8219C0.854479 26.2366 1.22095 26.5739 1.67131 26.5739C2.12167 26.5739 2.48834 26.2366 2.48834 25.8219C2.48834 25.4075 2.12167 25.0702 1.67131 25.0702Z" fill="#2A3D50"/>
<path d="M13.3991 22.6436C13.3112 22.6436 13.224 22.6058 13.164 22.5327C13.0583 22.4035 13.0773 22.2133 13.2071 22.1078C13.7708 21.6493 14.0764 21.189 14.1157 20.74C14.1531 20.3123 13.9289 20.0408 13.9267 20.0381C13.8171 19.9119 13.8311 19.7213 13.9578 19.6122C14.0847 19.5034 14.2764 19.5174 14.3853 19.6434C14.4015 19.662 14.7795 20.1064 14.7196 20.7923C14.6655 21.4098 14.2859 22.0098 13.5905 22.5754C13.5345 22.6213 13.4666 22.6436 13.3991 22.6436Z" fill="white"/>
<path d="M23.1837 17.8216C23.383 16.7325 24.4529 15.9109 25.5612 15.9956L39.6383 17.0728C40.7468 17.1576 41.5166 18.1225 41.3488 19.2168L39.8362 29.0879C39.6685 30.1822 38.6256 30.9936 37.5187 30.8907L23.0851 29.5506C21.9782 29.4478 21.2355 28.4726 21.4346 27.3835L23.1837 17.8216Z" fill="#666666"/>
<path d="M37.708 31C37.6421 31 37.5758 30.997 37.5093 30.991L23.0754 29.6507C22.5116 29.5983 22.0192 29.3308 21.6893 28.8975C21.3595 28.4644 21.2335 27.9201 21.335 27.3654L23.0841 17.8035C23.2905 16.6766 24.4085 15.8065 25.5689 15.8954L39.646 16.9726C40.2106 17.0157 40.7097 17.2756 41.0513 17.7039C41.3929 18.1322 41.5342 18.6748 41.4487 19.2321L39.9363 29.103C39.773 30.1667 38.7942 31 37.708 31ZM25.4032 16.0903C24.3937 16.0903 23.4621 16.8585 23.283 17.8395L21.5339 27.4014C21.4427 27.9002 21.5549 28.3883 21.8502 28.7759C22.1456 29.1636 22.5872 29.4031 23.0942 29.4502L37.5279 30.7905C38.5822 30.8881 39.5787 30.0991 39.7362 29.0726L41.2486 19.2017C41.3254 18.7004 41.199 18.2129 40.8926 17.8289C40.5864 17.445 40.138 17.2122 39.6303 17.1733L25.5532 16.0961C25.5032 16.0921 25.4531 16.0903 25.4032 16.0903Z" fill="#2A3D50"/>
<path d="M39.7498 22.9279C39.7498 26.8173 34.3427 29.5985 30.1822 29.5985C25.5227 29.5985 23.1074 27.4521 23.1074 22.9279C23.1074 20.1416 27.5894 16.7367 31.3626 16.7367C36.0221 16.7367 39.7498 18.8593 39.7498 22.9279Z" fill="#666666"/>
<path d="M30.1817 29.6992C25.4202 29.6992 23.0059 27.421 23.0059 22.9279C23.0059 20.0467 27.5353 16.6361 31.3621 16.6361C36.5186 16.6361 39.8504 19.1057 39.8504 22.9279C39.8504 26.7413 34.6529 29.6992 30.1817 29.6992ZM31.3619 16.8374C27.7039 16.8374 23.2078 20.1956 23.2078 22.9279C23.2078 27.3489 25.4889 29.4979 30.1815 29.4979C34.5591 29.4979 39.6481 26.628 39.6481 22.9279C39.6483 19.2279 36.3957 16.8374 31.3619 16.8374Z" fill="#2A3D50"/>
<path d="M38.708 22.9279C38.708 25.8444 34.9685 28.6288 31.3301 28.6288C27.2555 28.6288 24.1543 26.8844 24.1543 22.9279C24.1543 19.974 27.6917 17.2271 31.3301 17.2271C35.4049 17.2271 38.708 19.37 38.708 22.9279Z" fill="#333333"/>
<path d="M31.3296 28.7295C26.7049 28.7295 24.0527 26.6149 24.0527 22.928C24.0527 19.9459 27.5891 17.1265 31.3296 17.1265C35.7331 17.1265 38.8086 19.5122 38.8086 22.928C38.8086 25.8557 35.1039 28.7295 31.3296 28.7295ZM31.3296 17.3277C27.6932 17.3277 24.2549 20.0494 24.2549 22.928C24.2549 26.4869 26.8335 28.5282 31.3296 28.5282C35.002 28.5282 38.6065 25.7543 38.6065 22.928C38.6065 19.6305 35.614 17.3277 31.3296 17.3277Z" fill="#2A3D50"/>
<path d="M31.1675 26.3475C34.3072 26.3475 36.8525 24.4927 36.8525 22.2047C36.8525 19.9167 34.3072 18.0619 31.1675 18.0619C28.0277 18.0619 25.4824 19.9167 25.4824 22.2047C25.4824 24.4927 28.0277 26.3475 31.1675 26.3475Z" fill="#666666"/>
<path d="M31.167 26.4482C27.9765 26.4482 25.3809 24.5446 25.3809 22.2048C25.3809 19.865 27.9765 17.9613 31.167 17.9613C34.3575 17.9613 36.9531 19.865 36.9531 22.2048C36.9531 24.5446 34.3575 26.4482 31.167 26.4482ZM31.167 18.1626C28.0881 18.1626 25.583 19.9759 25.583 22.2048C25.583 24.4337 28.0881 26.247 31.167 26.247C34.2459 26.247 36.751 24.4337 36.751 22.2048C36.751 19.9759 34.2459 18.1626 31.167 18.1626Z" fill="#2A3D50"/>
<path d="M37.7132 30.1687C38.2528 30.1687 38.6902 29.7921 38.6902 29.3274C38.6902 28.8628 38.2528 28.4861 37.7132 28.4861C37.1737 28.4861 36.7363 28.8628 36.7363 29.3274C36.7363 29.7921 37.1737 30.1687 37.7132 30.1687Z" fill="#333333"/>
<path d="M37.7128 30.2694C37.1185 30.2694 36.6348 29.8467 36.6348 29.3275C36.6348 28.8082 37.1185 28.3855 37.7128 28.3855C38.307 28.3855 38.7907 28.808 38.7907 29.3275C38.7907 29.8469 38.307 30.2694 37.7128 30.2694ZM37.7128 28.5868C37.2296 28.5868 36.8369 28.9191 36.8369 29.3275C36.8369 29.7358 37.2296 30.0682 37.7128 30.0682C38.1959 30.0682 38.5886 29.7358 38.5886 29.3275C38.5886 28.9191 38.1957 28.5868 37.7128 28.5868Z" fill="#2A3D50"/>
<path d="M39.6247 19.4287C40.1316 19.4287 40.5424 19.0596 40.5424 18.6043C40.5424 18.149 40.1316 17.7799 39.6247 17.7799C39.1179 17.7799 38.707 18.149 38.707 18.6043C38.707 19.0596 39.1179 19.4287 39.6247 19.4287Z" fill="#333333"/>
<path d="M39.624 19.5294C39.0625 19.5294 38.6055 19.1144 38.6055 18.6044C38.6055 18.0943 39.0625 17.6793 39.624 17.6793C40.1858 17.6793 40.6428 18.0943 40.6428 18.6044C40.6428 19.1144 40.1858 19.5294 39.624 19.5294ZM39.624 17.8806C39.1737 17.8806 38.8076 18.2052 38.8076 18.6044C38.8076 19.0035 39.1739 19.3282 39.624 19.3282C40.0742 19.3282 40.4406 19.0035 40.4406 18.6044C40.4406 18.2052 40.0742 17.8806 39.624 17.8806Z" fill="#2A3D50"/>
<path d="M25.045 18.2209C25.51 18.2209 25.8869 17.8774 25.8869 17.4537C25.8869 17.0299 25.51 16.6864 25.045 16.6864C24.5801 16.6864 24.2031 17.0299 24.2031 17.4537C24.2031 17.8774 24.5801 18.2209 25.045 18.2209Z" fill="#333333"/>
<path d="M25.0443 18.3218C24.5246 18.3218 24.1016 17.9323 24.1016 17.4537C24.1016 16.975 24.5246 16.5856 25.0443 16.5856C25.5642 16.5856 25.9873 16.975 25.9873 17.4537C25.9873 17.9323 25.5642 18.3218 25.0443 18.3218ZM25.0443 16.787C24.6358 16.787 24.3037 17.0861 24.3037 17.4539C24.3037 17.8216 24.636 18.1207 25.0443 18.1207C25.4526 18.1207 25.7851 17.8216 25.7851 17.4539C25.7851 17.0861 25.4526 16.787 25.0443 16.787Z" fill="#2A3D50"/>
<path d="M22.8986 28.8884C23.4056 28.8884 23.8167 28.5068 23.8167 28.036C23.8167 27.5652 23.4056 27.1836 22.8986 27.1836C22.3915 27.1836 21.9805 27.5652 21.9805 28.036C21.9805 28.5068 22.3915 28.8884 22.8986 28.8884Z" fill="#333333"/>
<path d="M22.8979 28.9893C22.3361 28.9893 21.8789 28.5616 21.8789 28.036C21.8789 27.5105 22.3361 27.083 22.8979 27.083C23.4598 27.083 23.917 27.5107 23.917 28.036C23.917 28.5616 23.4598 28.9893 22.8979 28.9893ZM22.8979 27.2843C22.4473 27.2843 22.081 27.6216 22.081 28.036C22.081 28.4507 22.4475 28.788 22.8979 28.788C23.3482 28.788 23.7149 28.4507 23.7149 28.036C23.7149 27.6216 23.3482 27.2843 22.8979 27.2843Z" fill="#2A3D50"/>
<path d="M34.2194 24.254C34.1315 24.254 34.0444 24.2161 33.9843 24.1431C33.8786 24.0139 33.8976 23.8237 34.0274 23.7182C34.5911 23.2597 34.8968 22.7994 34.936 22.3503C34.9734 21.9226 34.7492 21.6511 34.747 21.6485C34.6374 21.5223 34.6514 21.3317 34.7781 21.2226C34.9051 21.1137 35.0967 21.1278 35.2056 21.2538C35.2218 21.2723 35.5998 21.7167 35.54 22.4027C35.4858 23.0202 35.1062 23.6202 34.4108 24.1857C34.3548 24.2316 34.2869 24.254 34.2194 24.254Z" fill="white"/>
</g>
<defs>
<clipPath id="clip0">
<rect width="44" height="31" fill="white"/>
</clipPath>
</defs>
</svg>
