<svg width="25" height="47" viewBox="0 0 25 47" fill="none" xmlns="http://www.w3.org/2000/svg">
<path d="M8.8248 2.01333C7.35052 4.77468 4.50225 10.0579 4.13585 14.3545C3.96808 16.3158 3.12825 18.6708 2.13801 19.9587C0.191274 22.4894 -0.469209 27.002 0.996389 33.3257C1.82272 36.893 2.54587 38.7022 3.03569 39.5739C3.52551 40.4456 6.88867 42.4383 7.86734 43.4347C8.84601 44.431 10.0898 47.3573 13.1888 46.6937C16.2878 46.0301 18.4081 43.5387 19.4687 41.9612C20.5293 40.3837 22.7306 34.3231 22.8126 32.9939C22.8945 31.6648 23.8732 28.6767 24.1991 27.1816C24.525 25.6876 25.0148 19.7094 24.688 18.713C24.3621 17.7166 23.3014 10.908 22.4857 9.49638C21.67 8.08478 19.3048 5.34502 18.8969 4.76389C18.4891 4.18275 15.635 1.02776 13.9226 0.612525C12.3442 0.230667 10.1708 -0.507528 8.8248 2.01333Z" fill="#666666"/>
<path d="M12.3122 47C10.3047 47 9.17757 45.4794 8.35414 44.3702C8.11791 44.0521 7.91349 43.7763 7.72354 43.5829C7.31472 43.1667 6.43054 42.5384 5.57625 41.9318C4.33339 41.0483 3.15898 40.2149 2.85815 39.6779C2.39244 38.8475 1.65674 37.0805 0.797635 33.3748C-0.581183 27.4231 -0.162717 22.6131 1.97783 19.8301C2.94589 18.5707 3.76836 16.2609 3.93324 14.3369C4.29868 10.0559 7.08717 4.83556 8.58458 2.03003L8.64629 1.9142C9.33281 0.626287 10.3076 0 11.6247 0C12.3344 0 13.0412 0.177677 13.665 0.333758L13.9707 0.409344C15.794 0.851083 18.704 4.1278 19.0646 4.64218C19.1851 4.81397 19.4898 5.19092 19.8764 5.66701C20.7567 6.75369 22.0874 8.395 22.662 9.39038C23.2261 10.3661 23.8808 13.7273 24.36 16.1824C24.5847 17.3348 24.7785 18.3292 24.8826 18.6463C25.2239 19.6907 24.7331 25.6945 24.3986 27.2268C24.2819 27.7618 24.0833 28.4833 23.8731 29.247C23.4951 30.6174 23.068 32.1713 23.0169 33.0067C22.9359 34.3368 20.7375 40.4417 19.6383 42.0781C18.6278 43.5819 16.4525 46.2068 13.2311 46.8969C12.9177 46.9656 12.6073 47 12.3122 47ZM11.6247 0.418179C10.4551 0.418179 9.62303 0.9571 9.00594 2.11249L8.94423 2.22833C7.46128 5.00637 4.69979 10.1777 4.3411 14.3722C4.17044 16.3679 3.31229 18.7719 2.29987 20.0873C0.238394 22.7682 -0.153075 27.4526 1.19682 33.2776C2.04436 36.9352 2.76173 38.6639 3.21491 39.4698C3.47042 39.9243 4.71329 40.8078 5.81152 41.5882C6.72077 42.2341 7.57891 42.8437 8.01377 43.2864C8.22493 43.5014 8.43706 43.7871 8.68197 44.1179C9.45333 45.1575 10.5091 46.5808 12.3122 46.5818C12.5803 46.5818 12.8608 46.5504 13.1472 46.4895C16.2279 45.8299 18.3241 43.2953 19.2998 41.8434C20.346 40.2875 22.5309 34.2416 22.608 32.9812C22.662 32.1006 23.0959 30.5251 23.4787 29.1351C23.687 28.3763 23.8846 27.6607 23.9984 27.1375C24.3378 25.5845 24.7881 19.679 24.4931 18.7798C24.3812 18.4372 24.1942 17.4791 23.9579 16.2648C23.5115 13.9756 22.8375 10.5173 22.3091 9.6034C21.7508 8.63648 20.4328 7.0099 19.5602 5.93402C19.1687 5.45105 18.8592 5.0692 18.7309 4.88563C18.2643 4.22008 15.4835 1.20546 13.8762 0.815744L13.5676 0.739176C12.9659 0.588985 12.2843 0.418179 11.6247 0.418179Z" fill="#2A3D50"/>
<path d="M11.0232 45.5236C10.0503 45.5236 9.09474 45.3303 8.61842 44.7256L8.9395 44.4644C9.74654 45.4912 12.7867 45.0564 13.6574 44.6765C14.3931 44.3555 18.0985 37.6106 18.4987 36.4552C18.5989 36.1666 18.7725 35.4726 18.9933 34.5931C19.566 32.3088 20.4319 28.8554 21.1628 27.9248C22.0633 26.7792 22.5271 22.9881 22.4635 20.7755C22.4008 18.6119 21.4771 13.0667 20.4579 10.32C19.4282 7.54591 14.8713 3.63505 13.7991 2.81636C12.6633 1.94957 10.7985 2.2902 10.7792 2.29413C9.95771 2.30591 8.76498 2.50027 8.70134 2.89096C8.66856 3.09122 8.67434 3.3916 8.68206 3.7391C8.70038 4.6373 8.72255 5.75638 8.118 6.40524C7.3717 7.20528 5.23983 10.2484 4.84065 11.6708L4.44629 11.5559C4.86861 10.0511 7.0323 6.96281 7.82102 6.11762C8.30891 5.59146 8.2877 4.56859 8.2713 3.74597C8.26359 3.37786 8.25684 3.05981 8.29637 2.82029C8.44004 1.94466 10.3569 1.88086 10.7397 1.87693C10.7879 1.86515 12.7655 1.50194 14.045 2.47868C15.2078 3.36608 19.7676 7.27301 20.8427 10.1698C21.8753 12.9528 22.8106 18.5697 22.8742 20.7617C22.9388 22.9901 22.4799 26.9166 21.4839 28.1849C20.8079 29.0448 19.9218 32.5817 19.3925 34.6952C19.1698 35.5835 18.9933 36.2864 18.8872 36.5927C18.5671 37.5154 14.7922 44.6353 13.8203 45.0603C13.4067 45.2399 12.2024 45.5236 11.0232 45.5236Z" fill="#2A3D50"/>
<path d="M12.8214 15.6621C12.7375 17.1984 12.6989 24.8788 13.3102 24.8788C13.9215 24.8788 16.0062 17.8433 16.3687 16.846C16.4969 16.4936 12.8368 15.3814 12.8214 15.6621Z" fill="white"/>
<path d="M13.3113 25.0868C13.2545 25.0868 13.1696 25.0691 13.0905 24.9847C12.4204 24.2632 12.5853 16.2197 12.6171 15.6503C12.62 15.5934 12.6528 15.4078 12.9498 15.4078C13.5293 15.4078 16.203 16.1882 16.5222 16.6555C16.5993 16.7674 16.58 16.8685 16.5627 16.9186C16.4865 17.1277 16.3351 17.6028 16.1365 18.2242C14.2707 24.06 13.7385 25.0868 13.3113 25.0868ZM13.0192 15.829C12.9276 17.8462 12.9633 23.7125 13.3393 24.6107C13.8677 23.9697 15.2205 19.7359 15.745 18.0936C15.9224 17.539 16.0632 17.0982 16.1461 16.8577C15.7874 16.5681 13.6922 15.879 13.0192 15.829Z" fill="#2A3D50"/>
<path d="M13.147 32.1645C13.7775 32.1645 14.2886 30.9981 14.2886 29.5593C14.2886 28.1204 13.7775 26.954 13.147 26.954C12.5165 26.954 12.0054 28.1204 12.0054 29.5593C12.0054 30.9981 12.5165 32.1645 13.147 32.1645Z" fill="white"/>
<path d="M13.1473 32.3725C12.3798 32.3725 11.8003 31.1631 11.8003 29.5581C11.8003 27.9541 12.3798 26.7438 13.1473 26.7438C13.9148 26.7438 14.4943 27.9532 14.4943 29.5581C14.4943 31.1631 13.9158 32.3725 13.1473 32.3725ZM13.1473 27.1629C12.7047 27.1629 12.211 28.1465 12.211 29.5591C12.211 30.9717 12.7047 31.9553 13.1473 31.9553C13.5899 31.9553 14.0835 30.9717 14.0835 29.5591C14.0835 28.1465 13.5908 27.1629 13.1473 27.1629Z" fill="#2A3D50"/>
<path d="M15.2981 39.3785C11.3564 39.3785 8.15039 32.4619 8.15039 23.9589C8.15039 15.4569 11.3573 8.54028 15.2981 8.54028C19.2388 8.54028 22.4457 15.4569 22.4457 23.9589C22.4457 24.4704 22.4342 24.9828 22.412 25.4814C22.4101 25.5256 22.4014 25.6149 22.3927 25.7013C22.386 25.772 22.3782 25.8407 22.3763 25.8761L21.9665 25.8525C21.9685 25.8132 21.9762 25.7367 21.9839 25.6591C21.9916 25.5816 22.0003 25.5011 22.0022 25.4618C22.0244 24.97 22.036 24.4645 22.036 23.9589C22.036 15.6876 19.0141 8.95846 15.299 8.95846C11.5839 8.95846 8.56211 15.6876 8.56211 23.9589C8.56211 32.2302 11.5849 38.9604 15.299 38.9604C16.1292 38.9604 16.943 38.6207 17.7153 37.9512C17.7558 37.9169 17.7954 37.8806 17.8349 37.8442L18.1097 38.1544C18.0663 38.1937 18.0239 38.232 17.9805 38.2693C17.131 39.0065 16.2285 39.3785 15.2981 39.3785Z" fill="#2A3D50"/>
<path d="M14.4419 36.8254C10.9726 36.8254 8.15039 31.0533 8.15039 23.959C8.15039 16.8647 10.9726 11.0927 14.4419 11.0927C17.9111 11.0927 20.7333 16.8647 20.7333 23.959C20.7333 31.0867 17.2911 36.8254 14.4419 36.8254ZM14.4419 11.5118C11.1992 11.5118 8.56114 17.0954 8.56114 23.959C8.56114 30.8227 11.1992 36.4062 14.4419 36.4062C17.0896 36.4062 20.3226 30.6626 20.3226 23.959C20.3226 17.0964 17.6845 11.5118 14.4419 11.5118Z" fill="#2A3D50"/>
<path d="M15.296 43.0204C15.2825 43.0204 13.895 42.991 13.0552 42.563C12.3388 42.1978 9.52231 39.6652 9.0026 38.4313C8.534 37.3171 6.58726 31.6864 6.45999 30.7813C6.33078 29.8586 5.96824 25.8368 5.92774 24.8866C5.88532 23.8696 6.54387 19.8743 6.62487 19.4601C6.70682 19.0419 7.79638 15.0878 7.84266 14.92C7.95258 13.5005 10.6582 8.49906 12.3359 6.3365C14.0782 4.08854 15.4734 4.50476 15.5332 4.52243C15.5583 4.52537 16.7712 4.74428 17.2476 5.3421L16.9284 5.60518C16.6141 5.21056 15.7453 4.98282 15.4377 4.92883C15.4021 4.91901 14.2093 4.59703 12.6598 6.59565C11.0506 8.67084 8.35659 13.6222 8.24667 14.9936C7.84845 16.4513 7.09251 19.2205 7.02983 19.5425C6.93245 20.0363 6.30186 23.953 6.34043 24.8689C6.37899 25.8132 6.73961 29.8066 6.86881 30.7224C6.98066 31.5225 8.86665 37.0422 9.3825 38.2663C9.86171 39.405 12.575 41.8493 13.2413 42.189C13.8931 42.5208 15.0501 42.6003 15.3018 42.6023L15.296 43.0204Z" fill="#2A3D50"/>
<path d="M14.4153 43.6564C14.0537 43.6564 13.5832 43.5808 13.0471 43.2746C12.2391 42.8122 10.7021 41.4163 8.21061 38.8817C6.19638 36.8311 5.79719 33.8135 5.5841 32.1918L5.50504 31.6028C5.21192 29.401 4.60254 24.8197 4.60254 24.1316C4.60254 23.2128 5.05861 21.8031 5.46068 20.5594C5.74609 19.6789 6.01414 18.8474 6.07296 18.3458C6.13177 17.8432 7.21362 13.7576 7.55302 12.8496C7.80757 12.1683 9.44479 8.42532 9.9375 7.78038C10.0474 7.63608 10.5064 6.91457 10.9509 6.21663C11.3491 5.59132 11.7647 4.93853 12.0096 4.57238C12.8726 3.28348 15.5203 3.82633 15.6331 3.84989L15.5502 4.26021C15.5251 4.25531 13.0577 3.75074 12.349 4.80797C12.105 5.17216 11.6924 5.82201 11.2951 6.44437C10.8053 7.21397 10.382 7.87854 10.2615 8.03659C9.81987 8.61477 8.22507 12.2262 7.93677 12.9978C7.58676 13.9333 6.52903 17.9806 6.47985 18.3949C6.41718 18.9387 6.14238 19.7888 5.85119 20.689C5.45876 21.9032 5.01426 23.2785 5.01426 24.1306C5.01426 24.7903 5.64388 29.5247 5.9129 31.5459L5.991 32.1359C6.19927 33.7075 6.58495 36.6338 8.5018 38.5853C10.9316 41.058 12.484 42.4726 13.2486 42.9104C13.9968 43.3384 14.5792 43.2441 14.8926 43.1921L14.9572 43.6054C14.827 43.626 14.6428 43.6564 14.4153 43.6564Z" fill="#2A3D50"/>
<path d="M13.8528 44.3408C13.5076 44.3408 13.0863 44.2946 12.6003 44.2014C11.7277 44.0355 11.2196 43.4848 10.4501 42.6523C10.2891 42.4776 10.1146 42.2891 9.92175 42.0869C9.56692 41.7149 9.09736 41.3016 8.60079 40.8628C7.55944 39.943 6.37829 38.9005 5.70431 37.7854C4.51737 35.8211 3.8106 31.6599 3.78071 31.4842C3.56666 30.21 3.12505 24.4812 3.19737 23.4858C3.27257 22.4462 4.21075 20.318 4.71406 19.1744C4.8423 18.8829 4.94065 18.661 4.98501 18.5452C5.19135 18.0043 5.79783 15.296 5.9309 14.596C6.07167 13.8618 7.27886 10.7205 7.55751 10.0687C7.86895 9.33936 9.46858 6.69678 9.75109 6.44548C9.87065 6.33946 10.0288 5.86729 10.1339 5.55513C10.2062 5.34113 10.2747 5.13793 10.3421 4.9897C10.5475 4.53619 11.2543 3.44166 12.0131 3.13833C12.745 2.84678 14.3774 2.85463 14.4439 2.85463L14.442 3.27281C14.4275 3.27281 12.8231 3.26594 12.1626 3.52804C11.5619 3.76756 10.913 4.72761 10.7143 5.16444C10.6555 5.29303 10.5909 5.48642 10.5225 5.6906C10.3412 6.22755 10.2091 6.59273 10.0211 6.7596C9.79834 6.96379 8.23825 9.52096 7.93356 10.2346C7.62019 10.9689 6.46121 14.01 6.33393 14.6746C6.21437 15.2979 5.59535 18.0995 5.36683 18.6954C5.32152 18.8142 5.22027 19.0439 5.08818 19.3442C4.63018 20.3838 3.67658 22.5483 3.60715 23.5152C3.5358 24.4939 3.97452 30.1511 4.18568 31.4116C4.43059 32.8762 5.13735 36.0469 6.05431 37.5645C6.69551 38.6247 7.8516 39.6456 8.87077 40.5457C9.37408 40.9904 9.84944 41.4096 10.2168 41.7944C10.4116 41.9986 10.5871 42.188 10.75 42.3647C11.4896 43.1648 11.936 43.6487 12.6755 43.7901C13.7718 43.9992 14.2356 43.9167 14.414 43.848L14.5577 44.2397C14.3812 44.3074 14.145 44.3408 13.8528 44.3408Z" fill="#2A3D50"/>
<path d="M11.6162 45.2805C11.3296 45.2837 11.2969 45.7949 10.7294 45.2805C9.64945 44.3016 8.65133 42.852 8.54894 42.6847C8.03983 41.8454 7.15566 40.8706 5.89929 40.1344C3.99595 39.0183 3.60062 37.3544 3.41163 36.6005C3.39235 36.5239 3.37499 36.4071 3.3586 36.3472C3.17251 35.6836 2.10417 30.0451 1.88433 28.6394C1.70306 27.4791 1.79948 25.1703 1.85637 23.7979C1.86794 23.5319 1.87758 23.3002 1.8824 23.1324C1.90651 22.3343 3.0838 20.1256 4.10586 18.2929C4.21 18.1054 4.28714 17.967 4.32281 17.8992C4.47805 17.6028 4.73646 16.2049 4.89169 15.3715C4.96883 14.9553 5.03247 14.6127 5.07007 14.4586C5.19156 13.9648 6.4836 10.2375 6.67934 9.74867C6.86736 9.27847 8.7842 5.91046 9.14867 5.40786C9.3743 5.09668 9.43794 4.4272 9.4765 4.02669C9.49193 3.86864 9.50447 3.73907 9.52086 3.66152C9.59992 3.28359 10.1061 2.60135 11.1263 2.38048C12.1059 2.16844 13.7865 2.3687 13.8569 2.37753L13.8077 2.79277C13.7913 2.7908 12.1252 2.59153 11.2102 2.78982C10.3491 2.97535 9.97018 3.51624 9.92101 3.74888C9.90654 3.81662 9.8969 3.92951 9.8834 4.06792C9.83808 4.54009 9.77059 5.25276 9.47747 5.65621C9.13421 6.12838 7.23376 9.46596 7.05538 9.9077C6.86832 10.373 5.57821 14.0954 5.46443 14.5597C5.42779 14.7089 5.36608 15.0427 5.29088 15.4481C5.0585 16.7026 4.85313 17.7677 4.6815 18.0946C4.64486 18.1643 4.56676 18.3047 4.45973 18.4971C3.92941 19.4483 2.31437 22.3431 2.29026 23.1402C2.28544 23.3081 2.2758 23.5358 2.26423 23.8048C2.2112 25.0721 2.11285 27.432 2.28833 28.551C2.49757 29.89 3.57169 35.5462 3.75104 36.1853C3.77032 36.2481 3.78864 36.3207 3.80889 36.4012C3.99787 37.1532 4.35077 38.552 6.1037 39.5798C8.08804 40.743 8.68296 41.7247 8.87773 42.0466C9.10721 42.4197 11.2265 44.9906 12.3778 44.9906C12.3874 44.9906 12.3971 45.3754 12.4058 45.3754C12.4058 45.3754 12.095 45.3754 11.8934 45.3754C11.6918 45.3754 11.9028 45.2772 11.6162 45.2805Z" fill="#2A3D50"/>
</svg>
