<svg width="75" height="19" viewBox="0 0 75 19" fill="none" xmlns="http://www.w3.org/2000/svg">
<path d="M34.5 0.856666C61.3 -1.54333 74.5 1.35667 74.5 6.35667C74.5 11.3567 64 15.8567 43.5 17.3567C23 18.8567 0 19.3567 0 12.8567C0 6.35667 1 3.85667 34.5 0.856666Z" fill="#333333"/>
<path d="M19.7857 10.0548C19.5327 10.0548 19.3157 9.86378 19.2897 9.60578C19.2617 9.33178 19.4607 9.08578 19.7347 9.05678L23.6057 8.65578C23.8737 8.63278 24.1267 8.82678 24.1547 9.10178C24.1827 9.37578 23.9837 9.62178 23.7097 9.65078L19.8387 10.0518C19.8207 10.0538 19.8037 10.0548 19.7857 10.0548Z" fill="white"/>
<path d="M54.3305 8.10876C54.0625 8.10876 53.8415 7.55576 53.8305 7.28676C53.8195 7.01076 54.0345 6.60676 54.3105 6.59576L58.1825 6.35676C58.5075 6.33476 58.6915 6.51876 58.7025 6.79376C58.7135 7.06976 58.4985 7.62376 58.2225 7.63476L54.3505 8.10876C54.3435 8.10876 54.3365 8.10876 54.3305 8.10876Z" fill="white"/>
<path d="M57.2441 9.0198C57.0731 9.0198 56.9051 8.9318 56.8121 8.7718L54.8551 5.42779C54.7151 5.18979 54.7951 4.8838 55.0341 4.7438C55.2741 4.6058 55.5801 4.6828 55.7191 4.9228L57.6761 8.2668C57.8161 8.5048 57.7361 8.8108 57.4971 8.9508C57.4171 8.9978 57.3301 9.0198 57.2441 9.0198Z" fill="white"/>
<path d="M34.8255 7.1478C34.8255 7.1478 33.4105 6.6638 33.2625 7.7438C33.1145 8.8238 34.5655 9.9028 35.4585 9.7538C36.3515 9.6048 36.9475 9.1208 36.1965 8.1218C35.7085 7.4728 35.0815 7.2118 34.8255 7.1478Z" fill="white"/>
<path d="M43.61 6.29175C43.61 6.29175 42.679 5.96075 42.53 7.03975C42.381 8.11875 44.019 8.97175 44.912 8.82275C45.805 8.67375 46.109 8.03875 45.359 7.03975C44.871 6.38975 43.866 6.35575 43.61 6.29175Z" fill="white"/>
<path d="M36.8901 11.5618C35.2871 11.5618 33.4631 11.4428 32.6461 11.2868C31.5421 11.0748 30.8531 10.1798 30.1241 9.23175C29.8531 8.87775 29.5671 8.50776 29.2451 8.15376C28.8281 7.69676 28.8371 7.26176 28.9181 6.97676C29.2341 5.86176 31.3001 5.21976 31.7101 5.10176C32.7241 4.73576 40.7011 4.59875 41.3401 4.59875C42.7761 4.59875 43.8111 4.76975 44.7251 4.92075C45.1121 4.98475 45.4761 5.04575 45.8411 5.08575C47.6721 5.29175 49.4301 6.97975 49.7201 8.29375C49.8261 8.77675 49.7171 9.25275 49.4031 9.66975C48.7611 10.5218 47.3731 10.9598 46.8061 10.9948L46.0991 11.0428C44.1841 11.1738 39.0941 11.5228 37.5161 11.5548C37.3091 11.5598 37.1001 11.5618 36.8901 11.5618ZM41.3391 5.59975C39.6541 5.59975 32.7411 5.79276 32.0161 6.05376C31.0541 6.33076 29.9871 6.87076 29.8791 7.24976C29.8721 7.27376 29.8541 7.33776 29.9831 7.47976C30.3261 7.85476 30.6281 8.24675 30.9161 8.62075C31.5541 9.44875 32.1041 10.1628 32.8361 10.3038C33.5721 10.4468 35.6231 10.5958 37.4961 10.5558C39.0501 10.5248 44.1211 10.1778 46.0301 10.0468L46.7431 9.99876C47.0971 9.97676 48.1861 9.62376 48.6041 9.06976C48.7421 8.88576 48.7871 8.70875 48.7431 8.51075C48.5561 7.66675 47.1791 6.24276 45.7291 6.08076C45.3471 6.03776 44.9651 5.97476 44.5611 5.90876C43.6861 5.76376 42.6921 5.59975 41.3391 5.59975Z" fill="white"/>
<path d="M9.95945 9.76679C9.95945 9.76679 13.6815 8.48779 13.9055 10.1248C14.1295 11.7618 11.5235 12.6308 10.7785 11.8128C10.7785 11.8128 6.62245 14.4468 6.60945 11.6138C6.59845 9.25679 7.87445 8.73879 9.95945 9.76679Z" fill="white"/>
<path d="M64.2327 4.69076C63.9737 5.57076 65.9077 7.54176 66.5407 7.54176C67.3077 7.54176 68.9027 5.98776 68.9027 5.57876C68.9027 4.94676 64.4187 4.05776 64.2327 4.69076Z" fill="white"/>
</svg>
