<svg width="50" height="36" viewBox="0 0 50 36" fill="none" xmlns="http://www.w3.org/2000/svg">
<g clip-path="url(#clip0)">
<path d="M3.68837 21.5113L3.38271 21.6143C1.28512 15.409 5.48627 13.8958 5.5365 13.8768L5.64373 14.1906C5.48062 14.2479 1.69839 15.6243 3.68837 21.5113Z" fill="#CC0033"/>
<path d="M4.14442 21.3498L3.83876 21.4528C1.74118 15.2475 5.93518 13.7369 5.99256 13.7153L6.09978 14.0291C5.93895 14.0856 2.15444 15.4628 4.14442 21.3498Z" fill="#000066"/>
<path d="M4.75173 21.1344L4.43682 21.2113C2.35185 15.0431 6.4808 13.4835 6.57991 13.4484C6.58051 13.4482 6.58112 13.448 6.58143 13.4479L6.69784 13.7876C6.5358 13.8445 2.76174 15.2474 4.75173 21.1344Z" fill="#2A3D50"/>
<path d="M40.865 23.0644C36.1506 24.7344 34.362 21.2827 34.343 21.2446L34.6307 21.0986C34.7095 21.256 36.6287 24.9216 42.0302 22.2023L42.1772 22.4993C41.7167 22.7312 41.2795 22.9176 40.865 23.0644Z" fill="#CC0033"/>
<path d="M40.6385 22.6222C35.9241 24.2922 34.1354 20.8405 34.1164 20.8024L34.4041 20.6564C34.4831 20.8138 36.4018 24.4803 41.8036 21.7601L41.9506 22.0571C41.49 22.2889 41.053 22.4754 40.6385 22.6222Z" fill="#000066"/>
<path d="M40.3357 22.0324C35.6213 23.7024 33.8327 20.2507 33.8137 20.2126L34.1014 20.0665C34.1804 20.2239 36.0979 23.8903 41.5009 21.1702L41.6479 21.4673C41.1874 21.6992 40.7502 21.8855 40.3357 22.0324Z" fill="#2A3D50"/>
<path d="M41.9788 23.3938C42.0895 23.384 44.1828 22.613 44.1828 22.613L41.1706 19.3413L38.9483 20.3924L41.9788 23.3938Z" fill="white"/>
<path d="M42.6272 23.2651C42.0466 23.4707 42.0079 23.4742 41.9874 23.4761L41.9502 23.4794L41.9229 23.4526L38.8077 20.3672L41.1884 19.2412L44.3257 22.6488L44.2113 22.6909C44.2115 22.6908 43.2806 23.0336 42.6272 23.2651ZM42.0025 23.3029C42.0589 23.2863 42.2043 23.239 42.5718 23.1088C43.0857 22.9267 43.7716 22.6757 44.04 22.5772L41.1529 19.4413L39.089 20.4175L42.0025 23.3029Z" fill="#2A3D50"/>
<path d="M4.98948 19.9044C4.98948 19.9044 2.45381 20.7147 2.24669 21.0959C2.24669 21.0959 3.7128 23.3029 4.16953 24.5922C4.62627 25.8816 7.51344 32.4222 12.4772 32.027C17.441 31.6318 30.3465 26.0488 32.5852 25.6075C34.8239 25.1663 40.4517 23.7883 40.7003 23.5243C40.9489 23.2604 39.7659 20.6453 38.9541 20.8889C38.1423 21.1325 13.9804 28.0206 13.9804 28.0206C13.9804 28.0206 9.41187 33.1129 4.98948 19.9044Z" fill="#333333"/>
<path d="M40.4174 23.7434C39.1397 24.196 34.4797 25.3185 32.6016 25.6887C32.2597 25.756 31.6484 25.9476 30.6772 26.2916C29.7531 26.619 28.6217 27.0417 27.3116 27.5315C25.6986 28.1344 23.8706 28.8174 22.036 29.4673C17.3616 31.1232 14.3267 31.9628 12.4845 32.1095C6.96782 32.5488 4.12142 24.6985 4.09335 24.6193C3.64536 23.3546 2.19447 21.1635 2.17986 21.1416L2.15145 21.0991L2.17548 21.0549C2.21763 20.9773 2.346 20.7413 4.18945 20.0883C4.62219 19.935 4.96034 19.8267 4.96374 19.8256L5.0395 19.8014L5.06549 19.8791C6.66664 24.6604 8.45736 27.5794 10.3886 28.5549C11.1651 28.947 11.9442 29.0094 12.7046 28.74C13.4575 28.4733 13.9155 27.9693 13.9201 27.9643L13.9353 27.9474L13.9572 27.9412C14.199 27.8722 38.1278 21.0503 38.9298 20.8098C39.4195 20.6629 39.9347 21.3736 40.1984 21.8103C40.5541 22.4 40.9586 23.3703 40.7588 23.5825C40.7307 23.6122 40.668 23.6546 40.4174 23.7434ZM30.6219 26.1355C31.6005 25.7888 32.2189 25.5954 32.5683 25.5265C34.4425 25.157 39.0898 24.0379 40.3621 23.5873C40.5936 23.5052 40.6355 23.4721 40.6417 23.4664C40.7231 23.3667 40.4645 22.5097 39.9715 21.7521C39.597 21.1769 39.235 20.8913 38.9779 20.9683C38.1852 21.2062 14.8601 27.856 14.0243 28.0943C13.934 28.1895 13.4797 28.6413 12.76 28.8963C11.9573 29.1806 11.136 29.1156 10.3188 28.7027C8.35771 27.712 6.54786 24.7872 4.93883 20.0079C4.81587 20.0481 4.55483 20.1346 4.24491 20.2444C2.81779 20.7499 2.44375 21.0013 2.34627 21.1004C2.57179 21.4439 3.82299 23.3732 4.24529 24.5653C4.27297 24.6434 7.07565 32.3741 12.4694 31.9446C14.2972 31.7991 17.3196 30.9622 21.9808 29.311C23.8142 28.6615 25.6415 27.9787 27.2538 27.3761C28.5646 26.8862 29.6966 26.4633 30.6219 26.1355Z" fill="#2A3D50"/>
<path d="M11.016 11.7218C10.1767 12.0087 9.71394 12.9557 10.0184 13.8153L15.01 27.9062C15.3145 28.7658 16.289 29.1827 17.125 28.8866L42.5343 19.8855C43.3703 19.5894 43.7384 18.6969 43.4339 17.8373L38.5529 4.05863C38.2484 3.19908 37.338 2.72161 36.4988 3.00854L11.016 11.7218Z" fill="#330099"/>
<path d="M42.589 20.0412L17.1797 29.0422C16.3282 29.3438 15.3344 28.8233 15.0094 27.9056L10.0177 13.8145C9.70043 12.9188 10.1667 12.0021 11.0308 11.696L11.0479 11.6899L36.5389 2.93944C37.4184 2.63877 38.3837 3.09942 38.7041 4.00382L43.5852 17.7826C43.9103 18.7005 43.454 19.7347 42.589 20.0412ZM11.0644 11.7913C10.2842 12.0677 9.88278 12.9512 10.1696 13.7607L15.1611 27.8516C15.4562 28.6846 16.3552 29.1582 17.1241 28.8858L42.5334 19.8848C43.316 19.6075 43.7281 18.6695 43.433 17.8365L38.552 4.05788C38.2619 3.2388 37.378 2.79379 36.5819 3.06616L11.0644 11.7913Z" fill="#2A3D50"/>
<path d="M12.3674 12.121C11.5283 12.4084 11.0531 13.3602 11.3576 14.2198L15.5372 26.0185C15.8417 26.878 16.8785 27.3902 17.7145 27.0941L40.5144 19.0174C41.3504 18.7213 41.6815 17.7245 41.3771 16.8649L37.2933 5.33687C36.9889 4.47732 36.0722 4.00243 35.2332 4.28977L12.3674 12.121Z" fill="white"/>
<path d="M40.5144 19.0168L17.7145 27.0935C16.8344 27.4053 15.8578 26.9228 15.5372 26.0179L11.3576 14.219C11.0401 13.3229 11.5126 12.4044 12.3839 12.0958L12.4002 12.09L35.274 4.22128C36.1568 3.91896 37.1248 4.37795 37.4452 5.28236L41.5289 16.8106C41.8496 17.7152 41.3945 18.7051 40.5144 19.0168ZM12.4323 12.1852C11.6299 12.4695 11.2227 13.3553 11.5096 14.1652L15.6891 25.9639C15.9791 26.7825 16.8629 27.2191 17.6591 26.9371L40.459 18.8604C41.2551 18.5784 41.667 17.6828 41.377 16.8642L37.2933 5.33615C37.0032 4.51707 36.1166 4.07355 35.3171 4.34726L12.4323 12.1852Z" fill="#2A3D50"/>
<path d="M20.56 10.2551L13.416 12.7858L13.6928 13.5672L20.8368 11.0366L20.56 10.2551Z" fill="#2A3D50"/>
<path d="M35.678 7.53793L14.2461 15.13L14.5229 15.9114L35.9548 8.31935L35.678 7.53793Z" fill="#2A3D50"/>
<path d="M36.509 9.88217L15.0771 17.4742L15.354 18.2557L36.7859 10.6636L36.509 9.88217Z" fill="#2A3D50"/>
<path d="M37.3948 12.3827L15.9629 19.9748L16.2397 20.7562L37.6716 13.1641L37.3948 12.3827Z" fill="#2A3D50"/>
<path d="M38.2249 14.727L16.793 22.319L17.0698 23.1004L38.5017 15.5084L38.2249 14.727Z" fill="#2A3D50"/>
<path d="M39.0549 17.0712L17.623 24.6633L17.8999 25.4447L39.3318 17.8526L39.0549 17.0712Z" fill="#2A3D50"/>
<path d="M5.64097 13.1188C4.78846 13.364 4.35919 14.2612 4.66368 15.1207L9.74889 29.4759C10.0534 30.3355 10.9762 30.888 11.8122 30.5919L14.0162 29.8111C14.8522 29.515 15.2214 28.5047 14.9169 27.6452L9.94393 13.6069C9.63944 12.7474 8.72134 12.2346 7.86898 12.4798L5.64097 13.1188Z" fill="#333333"/>
<path d="M14.0161 29.8111L11.8122 30.5918C10.9265 30.9056 9.91192 30.4191 9.59686 29.5297L4.51165 15.1745C4.19731 14.2871 4.68122 13.311 5.57972 13.0527L7.86489 12.3934C8.76039 12.1358 9.78215 12.6669 10.096 13.5528L15.0689 27.5911C15.3839 28.4807 14.9018 29.4973 14.0161 29.8111ZM5.5403 13.2394C4.78426 13.5072 4.3909 14.3512 4.6635 15.1207L9.74871 29.4759C10.0338 30.2806 10.9533 30.7202 11.7566 30.4356L13.9606 29.6548C14.7639 29.3703 15.2017 28.4499 14.9167 27.6452L9.94375 13.6069C9.65814 12.8007 8.72739 12.3179 7.91107 12.5527L5.62601 13.2118C5.59697 13.2202 5.56842 13.2294 5.5403 13.2394Z" fill="#2A3D50"/>
<path d="M6.84932 14.9016C5.99697 15.1473 5.51087 16.0651 5.81536 16.9246L9.50805 27.3488C9.81254 28.2084 10.8259 28.6543 11.6619 28.3582L12.7259 27.9813C13.5619 27.6851 13.9165 26.7546 13.612 25.895L10.0063 15.7164C9.70183 14.8568 8.77441 14.3477 7.92212 14.5935L6.84932 14.9016Z" fill="#333333"/>
<path d="M12.7263 27.9813L11.6623 28.3582C10.7673 28.6752 9.8213 28.2319 9.5085 27.3489L5.81575 16.9245C5.496 16.0223 5.9534 15.0684 6.8647 14.8086L7.95635 14.4938C8.85117 14.2357 9.8391 14.7602 10.1588 15.6627L13.7645 25.8412C14.0773 26.7242 13.6211 27.6643 12.7263 27.9813ZM6.82619 14.9949C6.06741 15.2637 5.69039 16.0877 5.96781 16.8708L9.6605 27.295C9.94224 28.0903 10.7973 28.4888 11.607 28.2019L12.671 27.825C13.4807 27.5382 13.8942 26.6904 13.6125 25.8951L10.0068 15.7164C9.71589 14.8953 8.81676 14.4182 8.00258 14.6528L6.91093 14.9676C6.8821 14.976 6.85386 14.9851 6.82619 14.9949Z" fill="#2A3D50"/>
<path d="M38.6244 1.43449C37.7719 1.67967 37.3426 2.57683 37.6471 3.43638L42.7323 17.7916C43.0368 18.6511 43.9596 19.2037 44.7956 18.9076L46.9996 18.1268C47.8356 17.8307 48.2048 16.8204 47.9003 15.9609L42.9273 1.92261C42.6228 1.06305 41.7047 0.550324 40.8524 0.795451L38.6244 1.43449Z" fill="#333333"/>
<path d="M46.9995 18.1267L44.7956 18.9075C43.9099 19.2212 42.8953 18.7348 42.5803 17.8454L37.4951 3.49017C37.1807 2.60279 37.6657 1.62628 38.5631 1.36835L40.8483 0.709059C41.7438 0.451463 42.7656 0.982526 43.0794 1.86849L48.0523 15.9067C48.3673 16.7964 47.8852 17.813 46.9995 18.1267ZM38.5237 1.55504C37.7677 1.82286 37.3743 2.66684 37.6469 3.43637L42.7321 17.7916C43.0172 18.5963 43.9367 19.0358 44.74 18.7513L46.944 17.9705C47.7473 17.686 48.1851 16.7655 47.9001 15.9609L42.9272 1.9226C42.6415 1.11634 41.7108 0.633593 40.8945 0.868416L38.6094 1.52749C38.5804 1.53584 38.5518 1.54508 38.5237 1.55504Z" fill="#2A3D50"/>
<path d="M39.8327 3.21735C38.9804 3.463 38.4943 4.38081 38.7988 5.24037L42.4915 15.6646C42.7959 16.5241 43.8093 16.9701 44.6453 16.6739L45.7093 16.297C46.5453 16.0009 46.8999 15.0703 46.5954 14.2108L42.9897 4.03208C42.6852 3.17253 41.7578 2.66345 40.9055 2.90926L39.8327 3.21735Z" fill="#333333"/>
<path d="M45.7097 16.297L44.6457 16.6739C43.7507 16.991 42.8047 16.5476 42.4919 15.6646L38.7992 5.24023C38.4794 4.33807 38.9368 3.38416 39.8481 3.12431L40.9398 2.80954C41.8346 2.55148 42.8225 3.07588 43.1422 3.97841L46.7479 14.157C47.0607 15.0399 46.6045 15.98 45.7097 16.297ZM39.8096 3.31068C39.0508 3.57947 38.6738 4.40341 38.9512 5.18654L42.6439 15.6108C42.9256 16.4061 43.7807 16.8045 44.5904 16.5177L45.6544 16.1407C46.4641 15.8539 46.8776 15.0061 46.5959 14.2108L42.9902 4.0321C42.6993 3.21099 41.8002 2.73394 40.986 2.96853L39.8943 3.2833C39.8655 3.29175 39.8373 3.30088 39.8096 3.31068Z" fill="#2A3D50"/>
</g>
<defs>
<clipPath id="clip0">
<rect width="45" height="22" fill="white" transform="translate(0 15.0259) rotate(-19.5063)"/>
</clipPath>
</defs>
</svg>
