<svg width="49" height="39" viewBox="0 0 49 39" fill="none" xmlns="http://www.w3.org/2000/svg">
<path d="M49 4.63271C47.1981 5.39425 45.2371 5.94233 43.2173 6.15579C45.3143 4.93523 46.8847 3.00694 47.6338 0.732716C45.666 1.87958 43.5103 2.68377 41.2622 3.10964C40.3227 2.12556 39.1863 1.3416 37.9239 0.806605C36.6616 0.271611 35.3003 -0.0029526 33.9249 2.39446e-05C28.3601 2.39446e-05 23.8846 4.41925 23.8846 9.84233C23.8846 10.6039 23.9788 11.3654 24.132 12.0981C15.7994 11.6712 8.36786 7.77117 3.42723 1.80002C2.527 3.30646 2.05524 5.02171 2.06105 6.76733C2.06105 10.1827 3.83355 13.1942 6.53647 14.9654C4.9436 14.9039 3.38803 14.475 1.99627 13.7135V13.8346C1.99627 18.6173 5.44706 22.5808 10.0461 23.4923C9.18262 23.7121 8.2943 23.8245 7.40212 23.8269C6.74847 23.8269 6.13015 23.7635 5.50595 23.6769C6.77791 27.5769 10.4819 30.4096 14.8926 30.5019C11.4418 33.15 7.11946 34.7077 2.42615 34.7077C1.58406 34.7077 0.806754 34.6788 0 34.5865C4.45187 37.3846 9.73405 39 15.4225 39C33.8896 39 43.9946 24.0115 43.9946 11.0019C43.9946 10.575 43.9946 10.1481 43.9651 9.72117C45.9202 8.31925 47.6338 6.58271 49 4.63271Z" fill="white"/>
</svg>
