<svg width="52" height="31" viewBox="0 0 52 31" fill="none" xmlns="http://www.w3.org/2000/svg">
<path d="M50.8077 2.09931C51.171 0.888171 50.8077 0 49.0898 0H43.399C41.951 0 41.2892 0.768359 40.9259 1.61225C40.9259 1.61225 38.0325 8.69417 33.9324 13.2861C32.6089 14.6222 32.0043 15.0442 31.2829 15.0442C30.9222 15.0442 30.398 14.6222 30.398 13.4111V2.09931C30.398 0.645942 29.9802 0 28.7735 0H19.8311C18.928 0 18.3831 0.671988 18.3831 1.31272C18.3831 2.68795 20.4331 3.00571 20.6433 6.88136V15.289C20.6433 17.1305 20.3138 17.4665 19.5871 17.4665C17.6591 17.4665 12.9673 10.3585 10.1828 2.22173C9.64047 0.640733 9.09292 0.00260566 7.63971 0.00260566H1.95145C0.324377 0.00260566 0 0.770964 0 1.61486C0 3.13074 1.92809 10.632 8.98134 20.5529C13.6835 27.3275 20.3034 31 26.3342 31C29.949 31 30.3954 30.1848 30.3954 28.7783V23.6576C30.3954 22.0271 30.7405 21.699 31.8849 21.699C32.7257 21.699 34.1737 22.1261 37.5498 25.3897C41.406 29.2601 42.0444 30.9974 44.2112 30.9974H49.8995C51.524 30.9974 52.3362 30.1822 51.8691 28.5725C51.3579 26.9707 49.5154 24.6396 47.0709 21.8813C45.7423 20.3081 43.7571 18.6151 43.1525 17.7686C42.3091 16.6773 42.553 16.1954 43.1525 15.2265C43.155 15.2291 50.0863 5.4306 50.8077 2.09931Z" fill="white"/>
</svg>
